$MeshFormat
2.2 0 8
$EndMeshFormat
$PhysicalNames
5
1 11 "Swall (physical id 11)"
1 12 "NWall (physical id 12)"
1 13 "Master (physical id 13)"
1 14 "Slave (physical id 14)"
2 15 "Fluid (physical id 15)"
$EndPhysicalNames
$Nodes
   121
     1 0.0000000000000000 0.0000000000000000 0
     2 0.0000000000000000 0.0085600000000000 0
     3 0.0000000000000000 0.0579200000000000 0
     4 0.0000000000000000 0.1630800000000000 0
     5 0.0000000000000000 0.3174400000000001 0
     6 0.0000000000000000 0.5000000000000000 0
     7 0.0000000000000000 0.6825599999999999 0
     8 0.0000000000000000 0.8369199999999997 0
     9 0.0000000000000000 0.9420800000000006 0
    10 0.0000000000000000 0.9914400000000003 0
    11 0.0000000000000000 1.0000000000000000 0
    12 0.1000000000000000 0.0000000000000000 0
    13 0.1000000000000000 0.0085600000000000 0
    14 0.1000000000000000 0.0579200000000000 0
    15 0.1000000000000000 0.1630800000000000 0
    16 0.1000000000000000 0.3174400000000001 0
    17 0.1000000000000000 0.5000000000000000 0
    18 0.1000000000000000 0.6825599999999999 0
    19 0.1000000000000000 0.8369199999999997 0
    20 0.1000000000000000 0.9420800000000006 0
    21 0.1000000000000000 0.9914400000000003 0
    22 0.1000000000000000 1.0000000000000000 0
    23 0.2000000000000000 0.0000000000000000 0
    24 0.2000000000000000 0.0085600000000000 0
    25 0.2000000000000000 0.0579200000000000 0
    26 0.2000000000000000 0.1630800000000000 0
    27 0.2000000000000000 0.3174400000000001 0
    28 0.2000000000000000 0.5000000000000000 0
    29 0.2000000000000000 0.6825599999999999 0
    30 0.2000000000000000 0.8369199999999997 0
    31 0.2000000000000000 0.9420800000000006 0
    32 0.2000000000000000 0.9914400000000003 0
    33 0.2000000000000000 1.0000000000000000 0
    34 0.3000000000000000 0.0000000000000000 0
    35 0.3000000000000000 0.0085600000000000 0
    36 0.3000000000000000 0.0579200000000000 0
    37 0.3000000000000000 0.1630800000000000 0
    38 0.3000000000000000 0.3174400000000001 0
    39 0.3000000000000000 0.5000000000000000 0
    40 0.3000000000000000 0.6825599999999999 0
    41 0.3000000000000000 0.8369199999999997 0
    42 0.3000000000000000 0.9420800000000006 0
    43 0.3000000000000000 0.9914400000000003 0
    44 0.3000000000000000 1.0000000000000000 0
    45 0.4000000000000000 0.0000000000000000 0
    46 0.4000000000000000 0.0085600000000000 0
    47 0.4000000000000000 0.0579200000000000 0
    48 0.4000000000000000 0.1630800000000000 0
    49 0.4000000000000000 0.3174400000000001 0
    50 0.4000000000000000 0.5000000000000000 0
    51 0.4000000000000000 0.6825599999999999 0
    52 0.4000000000000000 0.8369199999999997 0
    53 0.4000000000000000 0.9420800000000006 0
    54 0.4000000000000000 0.9914400000000003 0
    55 0.4000000000000000 1.0000000000000000 0
    56 0.5000000000000000 0.0000000000000000 0
    57 0.5000000000000000 0.0085600000000000 0
    58 0.5000000000000000 0.0579200000000000 0
    59 0.5000000000000000 0.1630800000000000 0
    60 0.5000000000000000 0.3174400000000001 0
    61 0.5000000000000000 0.5000000000000000 0
    62 0.5000000000000000 0.6825599999999999 0
    63 0.5000000000000000 0.8369199999999997 0
    64 0.5000000000000000 0.9420800000000006 0
    65 0.5000000000000000 0.9914400000000003 0
    66 0.5000000000000000 1.0000000000000000 0
    67 0.6000000000000000 0.0000000000000000 0
    68 0.6000000000000000 0.0085600000000000 0
    69 0.6000000000000000 0.0579200000000000 0
    70 0.6000000000000000 0.1630800000000000 0
    71 0.6000000000000000 0.3174400000000001 0
    72 0.6000000000000000 0.5000000000000000 0
    73 0.6000000000000000 0.6825599999999999 0
    74 0.6000000000000000 0.8369199999999997 0
    75 0.6000000000000000 0.9420800000000006 0
    76 0.6000000000000000 0.9914400000000003 0
    77 0.6000000000000000 1.0000000000000000 0
    78 0.7000000000000000 0.0000000000000000 0
    79 0.7000000000000000 0.0085600000000000 0
    80 0.7000000000000000 0.0579200000000000 0
    81 0.7000000000000000 0.1630800000000000 0
    82 0.7000000000000000 0.3174400000000001 0
    83 0.7000000000000000 0.5000000000000000 0
    84 0.7000000000000000 0.6825599999999999 0
    85 0.7000000000000000 0.8369199999999997 0
    86 0.7000000000000000 0.9420800000000006 0
    87 0.7000000000000000 0.9914400000000003 0
    88 0.7000000000000000 1.0000000000000000 0
    89 0.8000000000000000 0.0000000000000000 0
    90 0.8000000000000000 0.0085600000000000 0
    91 0.8000000000000000 0.0579200000000000 0
    92 0.8000000000000000 0.1630800000000000 0
    93 0.8000000000000000 0.3174400000000001 0
    94 0.8000000000000000 0.5000000000000000 0
    95 0.8000000000000000 0.6825599999999999 0
    96 0.8000000000000000 0.8369199999999997 0
    97 0.8000000000000000 0.9420800000000006 0
    98 0.8000000000000000 0.9914400000000003 0
    99 0.8000000000000000 1.0000000000000000 0
   100 0.9000000000000000 0.0000000000000000 0
   101 0.9000000000000000 0.0085600000000000 0
   102 0.9000000000000000 0.0579200000000000 0
   103 0.9000000000000000 0.1630800000000000 0
   104 0.9000000000000000 0.3174400000000001 0
   105 0.9000000000000000 0.5000000000000000 0
   106 0.9000000000000000 0.6825599999999999 0
   107 0.9000000000000000 0.8369199999999997 0
   108 0.9000000000000000 0.9420800000000006 0
   109 0.9000000000000000 0.9914400000000003 0
   110 0.9000000000000000 1.0000000000000000 0
   111 1.0000000000000000 0.0000000000000000 0
   112 1.0000000000000000 0.0085600000000000 0
   113 1.0000000000000000 0.0579200000000000 0
   114 1.0000000000000000 0.1630800000000000 0
   115 1.0000000000000000 0.3174400000000001 0
   116 1.0000000000000000 0.5000000000000000 0
   117 1.0000000000000000 0.6825599999999999 0
   118 1.0000000000000000 0.8369199999999997 0
   119 1.0000000000000000 0.9420800000000006 0
   120 1.0000000000000000 0.9914400000000003 0
   121 1.0000000000000000 1.0000000000000000 0
$EndNodes
$Elements
   240
     1 1 2 11 5     1    12
     2 1 2 11 5    12    23
     3 1 2 11 5    23    34
     4 1 2 11 5    34    45
     5 1 2 11 5    45    56
     6 1 2 11 5    56    67
     7 1 2 11 5    67    78
     8 1 2 11 5    78    89
     9 1 2 11 5    89   100
    10 1 2 11 5   100   111
    11 1 2 12 6   121   110
    12 1 2 12 6   110    99
    13 1 2 12 6    99    88
    14 1 2 12 6    88    77
    15 1 2 12 6    77    66
    16 1 2 12 6    66    55
    17 1 2 12 6    55    44
    18 1 2 12 6    44    33
    19 1 2 12 6    33    22
    20 1 2 12 6    22    11
    21 1 2 13 7   111   112
    22 1 2 13 7   112   113
    23 1 2 13 7   113   114
    24 1 2 13 7   114   115
    25 1 2 13 7   115   116
    26 1 2 13 7   116   117
    27 1 2 13 7   117   118
    28 1 2 13 7   118   119
    29 1 2 13 7   119   120
    30 1 2 13 7   120   121
    31 1 2 14 8    11    10
    32 1 2 14 8    10     9
    33 1 2 14 8     9     8
    34 1 2 14 8     8     7
    35 1 2 14 8     7     6
    36 1 2 14 8     6     5
    37 1 2 14 8     5     4
    38 1 2 14 8     4     3
    39 1 2 14 8     3     2
    40 1 2 14 8     2     1
    41 2 2 15 10     1    12    13
    42 2 2 15 10     1    13     2
    43 2 2 15 10     2    13    14
    44 2 2 15 10     2    14     3
    45 2 2 15 10     3    14    15
    46 2 2 15 10     3    15     4
    47 2 2 15 10     4    15    16
    48 2 2 15 10     4    16     5
    49 2 2 15 10     5    16    17
    50 2 2 15 10     5    17     6
    51 2 2 15 10     6    17     7
    52 2 2 15 10     7    17    18
    53 2 2 15 10     7    18     8
    54 2 2 15 10     8    18    19
    55 2 2 15 10     8    19     9
    56 2 2 15 10     9    19    20
    57 2 2 15 10     9    20    10
    58 2 2 15 10    10    20    21
    59 2 2 15 10    10    21    11
    60 2 2 15 10    11    21    22
    61 2 2 15 10    12    23    24
    62 2 2 15 10    12    24    13
    63 2 2 15 10    13    24    25
    64 2 2 15 10    13    25    14
    65 2 2 15 10    14    25    26
    66 2 2 15 10    14    26    15
    67 2 2 15 10    15    26    27
    68 2 2 15 10    15    27    16
    69 2 2 15 10    16    27    28
    70 2 2 15 10    16    28    17
    71 2 2 15 10    17    28    18
    72 2 2 15 10    18    28    29
    73 2 2 15 10    18    29    19
    74 2 2 15 10    19    29    30
    75 2 2 15 10    19    30    20
    76 2 2 15 10    20    30    31
    77 2 2 15 10    20    31    21
    78 2 2 15 10    21    31    32
    79 2 2 15 10    21    32    22
    80 2 2 15 10    22    32    33
    81 2 2 15 10    23    34    35
    82 2 2 15 10    23    35    24
    83 2 2 15 10    24    35    36
    84 2 2 15 10    24    36    25
    85 2 2 15 10    25    36    37
    86 2 2 15 10    25    37    26
    87 2 2 15 10    26    37    38
    88 2 2 15 10    26    38    27
    89 2 2 15 10    27    38    39
    90 2 2 15 10    27    39    28
    91 2 2 15 10    28    39    29
    92 2 2 15 10    29    39    40
    93 2 2 15 10    29    40    30
    94 2 2 15 10    30    40    41
    95 2 2 15 10    30    41    31
    96 2 2 15 10    31    41    42
    97 2 2 15 10    31    42    32
    98 2 2 15 10    32    42    43
    99 2 2 15 10    32    43    33
   100 2 2 15 10    33    43    44
   101 2 2 15 10    34    45    46
   102 2 2 15 10    34    46    35
   103 2 2 15 10    35    46    47
   104 2 2 15 10    35    47    36
   105 2 2 15 10    36    47    48
   106 2 2 15 10    36    48    37
   107 2 2 15 10    37    48    49
   108 2 2 15 10    37    49    38
   109 2 2 15 10    38    49    50
   110 2 2 15 10    38    50    39
   111 2 2 15 10    39    50    40
   112 2 2 15 10    40    50    51
   113 2 2 15 10    40    51    41
   114 2 2 15 10    41    51    52
   115 2 2 15 10    41    52    42
   116 2 2 15 10    42    52    53
   117 2 2 15 10    42    53    43
   118 2 2 15 10    43    53    54
   119 2 2 15 10    43    54    44
   120 2 2 15 10    44    54    55
   121 2 2 15 10    45    56    57
   122 2 2 15 10    45    57    46
   123 2 2 15 10    46    57    58
   124 2 2 15 10    46    58    47
   125 2 2 15 10    47    58    59
   126 2 2 15 10    47    59    48
   127 2 2 15 10    48    59    60
   128 2 2 15 10    48    60    49
   129 2 2 15 10    49    60    61
   130 2 2 15 10    49    61    50
   131 2 2 15 10    50    61    51
   132 2 2 15 10    51    61    62
   133 2 2 15 10    51    62    52
   134 2 2 15 10    52    62    63
   135 2 2 15 10    52    63    53
   136 2 2 15 10    53    63    64
   137 2 2 15 10    53    64    54
   138 2 2 15 10    54    64    65
   139 2 2 15 10    54    65    55
   140 2 2 15 10    55    65    66
   141 2 2 15 10    56    67    68
   142 2 2 15 10    56    68    57
   143 2 2 15 10    57    68    69
   144 2 2 15 10    57    69    58
   145 2 2 15 10    58    69    70
   146 2 2 15 10    58    70    59
   147 2 2 15 10    59    70    71
   148 2 2 15 10    59    71    60
   149 2 2 15 10    60    71    72
   150 2 2 15 10    60    72    61
   151 2 2 15 10    61    72    62
   152 2 2 15 10    62    72    73
   153 2 2 15 10    62    73    63
   154 2 2 15 10    63    73    74
   155 2 2 15 10    63    74    64
   156 2 2 15 10    64    74    75
   157 2 2 15 10    64    75    65
   158 2 2 15 10    65    75    76
   159 2 2 15 10    65    76    66
   160 2 2 15 10    66    76    77
   161 2 2 15 10    67    78    79
   162 2 2 15 10    67    79    68
   163 2 2 15 10    68    79    80
   164 2 2 15 10    68    80    69
   165 2 2 15 10    69    80    81
   166 2 2 15 10    69    81    70
   167 2 2 15 10    70    81    82
   168 2 2 15 10    70    82    71
   169 2 2 15 10    71    82    83
   170 2 2 15 10    71    83    72
   171 2 2 15 10    72    83    73
   172 2 2 15 10    73    83    84
   173 2 2 15 10    73    84    74
   174 2 2 15 10    74    84    85
   175 2 2 15 10    74    85    75
   176 2 2 15 10    75    85    86
   177 2 2 15 10    75    86    76
   178 2 2 15 10    76    86    87
   179 2 2 15 10    76    87    77
   180 2 2 15 10    77    87    88
   181 2 2 15 10    78    89    90
   182 2 2 15 10    78    90    79
   183 2 2 15 10    79    90    91
   184 2 2 15 10    79    91    80
   185 2 2 15 10    80    91    92
   186 2 2 15 10    80    92    81
   187 2 2 15 10    81    92    93
   188 2 2 15 10    81    93    82
   189 2 2 15 10    82    93    94
   190 2 2 15 10    82    94    83
   191 2 2 15 10    83    94    84
   192 2 2 15 10    84    94    95
   193 2 2 15 10    84    95    85
   194 2 2 15 10    85    95    96
   195 2 2 15 10    85    96    86
   196 2 2 15 10    86    96    97
   197 2 2 15 10    86    97    87
   198 2 2 15 10    87    97    98
   199 2 2 15 10    87    98    88
   200 2 2 15 10    88    98    99
   201 2 2 15 10    89   100   101
   202 2 2 15 10    89   101    90
   203 2 2 15 10    90   101   102
   204 2 2 15 10    90   102    91
   205 2 2 15 10    91   102   103
   206 2 2 15 10    91   103    92
   207 2 2 15 10    92   103   104
   208 2 2 15 10    92   104    93
   209 2 2 15 10    93   104   105
   210 2 2 15 10    93   105    94
   211 2 2 15 10    94   105    95
   212 2 2 15 10    95   105   106
   213 2 2 15 10    95   106    96
   214 2 2 15 10    96   106   107
   215 2 2 15 10    96   107    97
   216 2 2 15 10    97   107   108
   217 2 2 15 10    97   108    98
   218 2 2 15 10    98   108   109
   219 2 2 15 10    98   109    99
   220 2 2 15 10    99   109   110
   221 2 2 15 10   100   111   112
   222 2 2 15 10   100   112   101
   223 2 2 15 10   101   112   113
   224 2 2 15 10   101   113   102
   225 2 2 15 10   102   113   114
   226 2 2 15 10   102   114   103
   227 2 2 15 10   103   114   115
   228 2 2 15 10   103   115   104
   229 2 2 15 10   104   115   116
   230 2 2 15 10   104   116   105
   231 2 2 15 10   105   116   106
   232 2 2 15 10   106   116   117
   233 2 2 15 10   106   117   107
   234 2 2 15 10   107   117   118
   235 2 2 15 10   107   118   108
   236 2 2 15 10   108   118   119
   237 2 2 15 10   108   119   109
   238 2 2 15 10   109   119   120
   239 2 2 15 10   109   120   110
   240 2 2 15 10   110   120   121
$EndElements
