$MeshFormat
2.2 0 8
$EndMeshFormat
$PhysicalNames
5
1 11 "Swall (physical id 11)"
1 12 "NWall (physical id 12)"
1 13 "EWall (physical id 13)"
1 14 "WWall (physical id 14)"
2 15 "Fluid (physical id 15)"
$EndPhysicalNames
$Nodes
   441
     1 0.0000000000000000 0.0000000000000000 0
     2 0.0000000000000000 0.0011581250000000 0
     3 0.0000000000000000 0.0085600000000000 0
     4 0.0000000000000000 0.0266118750000000 0
     5 0.0000000000000000 0.0579200000000000 0
     6 0.0000000000000000 0.1035156250000000 0
     7 0.0000000000000000 0.1630800000000000 0
     8 0.0000000000000000 0.2351693749999999 0
     9 0.0000000000000000 0.3174400000000001 0
    10 0.0000000000000000 0.4068731250000001 0
    11 0.0000000000000000 0.5000000000000000 0
    12 0.0000000000000000 0.5931268750000003 0
    13 0.0000000000000000 0.6825599999999999 0
    14 0.0000000000000000 0.7648306250000001 0
    15 0.0000000000000000 0.8369199999999997 0
    16 0.0000000000000000 0.8964843750000000 0
    17 0.0000000000000000 0.9420800000000006 0
    18 0.0000000000000000 0.9733881249999993 0
    19 0.0000000000000000 0.9914400000000003 0
    20 0.0000000000000000 0.9988418749999999 0
    21 0.0000000000000000 1.0000000000000000 0
    22 0.0011581250000000 0.0000000000000000 0
    23 0.0011581250000000 0.0011581250000000 0
    24 0.0011581250000000 0.0085600000000000 0
    25 0.0011581250000000 0.0266118750000000 0
    26 0.0011581250000000 0.0579200000000000 0
    27 0.0011581250000000 0.1035156250000000 0
    28 0.0011581250000000 0.1630800000000000 0
    29 0.0011581250000000 0.2351693749999999 0
    30 0.0011581250000000 0.3174400000000001 0
    31 0.0011581250000000 0.4068731250000001 0
    32 0.0011581250000000 0.5000000000000000 0
    33 0.0011581250000000 0.5931268750000003 0
    34 0.0011581250000000 0.6825599999999999 0
    35 0.0011581250000000 0.7648306250000001 0
    36 0.0011581250000000 0.8369199999999997 0
    37 0.0011581250000000 0.8964843750000000 0
    38 0.0011581250000000 0.9420800000000006 0
    39 0.0011581250000000 0.9733881249999993 0
    40 0.0011581250000000 0.9914400000000003 0
    41 0.0011581250000000 0.9988418749999999 0
    42 0.0011581250000000 1.0000000000000000 0
    43 0.0085600000000000 0.0000000000000000 0
    44 0.0085600000000000 0.0011581250000000 0
    45 0.0085600000000000 0.0085600000000000 0
    46 0.0085600000000000 0.0266118750000000 0
    47 0.0085600000000000 0.0579200000000000 0
    48 0.0085600000000000 0.1035156250000000 0
    49 0.0085600000000000 0.1630800000000000 0
    50 0.0085600000000000 0.2351693749999999 0
    51 0.0085600000000000 0.3174400000000001 0
    52 0.0085600000000000 0.4068731250000001 0
    53 0.0085600000000000 0.5000000000000000 0
    54 0.0085600000000000 0.5931268750000003 0
    55 0.0085600000000000 0.6825599999999999 0
    56 0.0085600000000000 0.7648306250000001 0
    57 0.0085600000000000 0.8369199999999997 0
    58 0.0085600000000000 0.8964843750000000 0
    59 0.0085600000000000 0.9420800000000006 0
    60 0.0085600000000000 0.9733881249999993 0
    61 0.0085600000000000 0.9914400000000003 0
    62 0.0085600000000000 0.9988418749999999 0
    63 0.0085600000000000 1.0000000000000000 0
    64 0.0266118750000000 0.0000000000000000 0
    65 0.0266118750000000 0.0011581250000000 0
    66 0.0266118750000000 0.0085600000000000 0
    67 0.0266118750000000 0.0266118750000000 0
    68 0.0266118750000000 0.0579200000000000 0
    69 0.0266118750000000 0.1035156250000000 0
    70 0.0266118750000000 0.1630800000000000 0
    71 0.0266118750000000 0.2351693749999999 0
    72 0.0266118750000000 0.3174400000000001 0
    73 0.0266118750000000 0.4068731250000001 0
    74 0.0266118750000000 0.5000000000000000 0
    75 0.0266118750000000 0.5931268750000003 0
    76 0.0266118750000000 0.6825599999999999 0
    77 0.0266118750000000 0.7648306250000001 0
    78 0.0266118750000000 0.8369199999999997 0
    79 0.0266118750000000 0.8964843750000000 0
    80 0.0266118750000000 0.9420800000000006 0
    81 0.0266118750000000 0.9733881249999993 0
    82 0.0266118750000000 0.9914400000000003 0
    83 0.0266118750000000 0.9988418749999999 0
    84 0.0266118750000000 1.0000000000000000 0
    85 0.0579200000000000 0.0000000000000000 0
    86 0.0579200000000000 0.0011581250000000 0
    87 0.0579200000000000 0.0085600000000000 0
    88 0.0579200000000000 0.0266118750000000 0
    89 0.0579200000000000 0.0579200000000000 0
    90 0.0579200000000000 0.1035156250000000 0
    91 0.0579200000000000 0.1630800000000000 0
    92 0.0579200000000000 0.2351693749999999 0
    93 0.0579200000000000 0.3174400000000001 0
    94 0.0579200000000000 0.4068731250000001 0
    95 0.0579200000000000 0.5000000000000000 0
    96 0.0579200000000000 0.5931268750000003 0
    97 0.0579200000000000 0.6825599999999999 0
    98 0.0579200000000000 0.7648306250000001 0
    99 0.0579200000000000 0.8369199999999997 0
   100 0.0579200000000000 0.8964843750000000 0
   101 0.0579200000000000 0.9420800000000006 0
   102 0.0579200000000000 0.9733881249999993 0
   103 0.0579200000000000 0.9914400000000003 0
   104 0.0579200000000000 0.9988418749999999 0
   105 0.0579200000000000 1.0000000000000000 0
   106 0.1035156250000000 0.0000000000000000 0
   107 0.1035156250000000 0.0011581250000000 0
   108 0.1035156250000000 0.0085600000000000 0
   109 0.1035156250000000 0.0266118750000000 0
   110 0.1035156250000000 0.0579200000000000 0
   111 0.1035156250000000 0.1035156250000000 0
   112 0.1035156250000000 0.1630800000000000 0
   113 0.1035156250000000 0.2351693749999999 0
   114 0.1035156250000000 0.3174400000000001 0
   115 0.1035156250000000 0.4068731250000001 0
   116 0.1035156250000000 0.5000000000000000 0
   117 0.1035156250000000 0.5931268750000003 0
   118 0.1035156250000000 0.6825599999999999 0
   119 0.1035156250000000 0.7648306250000001 0
   120 0.1035156250000000 0.8369199999999997 0
   121 0.1035156250000000 0.8964843750000000 0
   122 0.1035156250000000 0.9420800000000006 0
   123 0.1035156250000000 0.9733881249999993 0
   124 0.1035156250000000 0.9914400000000003 0
   125 0.1035156250000000 0.9988418749999999 0
   126 0.1035156250000000 1.0000000000000000 0
   127 0.1630800000000000 0.0000000000000000 0
   128 0.1630800000000000 0.0011581250000000 0
   129 0.1630800000000000 0.0085600000000000 0
   130 0.1630800000000000 0.0266118750000000 0
   131 0.1630800000000000 0.0579200000000000 0
   132 0.1630800000000000 0.1035156250000000 0
   133 0.1630800000000000 0.1630800000000000 0
   134 0.1630800000000000 0.2351693749999999 0
   135 0.1630800000000000 0.3174400000000001 0
   136 0.1630800000000000 0.4068731250000001 0
   137 0.1630800000000000 0.5000000000000000 0
   138 0.1630800000000000 0.5931268750000003 0
   139 0.1630800000000000 0.6825599999999999 0
   140 0.1630800000000000 0.7648306250000001 0
   141 0.1630800000000000 0.8369199999999997 0
   142 0.1630800000000000 0.8964843750000000 0
   143 0.1630800000000000 0.9420800000000006 0
   144 0.1630800000000000 0.9733881249999993 0
   145 0.1630800000000000 0.9914400000000003 0
   146 0.1630800000000000 0.9988418749999999 0
   147 0.1630800000000000 1.0000000000000000 0
   148 0.2351693749999999 0.0000000000000000 0
   149 0.2351693749999999 0.0011581250000000 0
   150 0.2351693749999999 0.0085600000000000 0
   151 0.2351693749999999 0.0266118750000000 0
   152 0.2351693749999999 0.0579200000000000 0
   153 0.2351693749999999 0.1035156250000000 0
   154 0.2351693749999999 0.1630800000000000 0
   155 0.2351693749999999 0.2351693749999999 0
   156 0.2351693749999999 0.3174400000000001 0
   157 0.2351693749999999 0.4068731250000001 0
   158 0.2351693749999999 0.5000000000000000 0
   159 0.2351693749999999 0.5931268750000003 0
   160 0.2351693749999999 0.6825599999999999 0
   161 0.2351693749999999 0.7648306250000001 0
   162 0.2351693749999999 0.8369199999999997 0
   163 0.2351693749999999 0.8964843750000000 0
   164 0.2351693749999999 0.9420800000000006 0
   165 0.2351693749999999 0.9733881249999993 0
   166 0.2351693749999999 0.9914400000000003 0
   167 0.2351693749999999 0.9988418749999999 0
   168 0.2351693749999999 1.0000000000000000 0
   169 0.3174400000000001 0.0000000000000000 0
   170 0.3174400000000001 0.0011581250000000 0
   171 0.3174400000000001 0.0085600000000000 0
   172 0.3174400000000001 0.0266118750000000 0
   173 0.3174400000000001 0.0579200000000000 0
   174 0.3174400000000001 0.1035156250000000 0
   175 0.3174400000000001 0.1630800000000000 0
   176 0.3174400000000001 0.2351693749999999 0
   177 0.3174400000000001 0.3174400000000001 0
   178 0.3174400000000001 0.4068731250000001 0
   179 0.3174400000000001 0.5000000000000000 0
   180 0.3174400000000001 0.5931268750000003 0
   181 0.3174400000000001 0.6825599999999999 0
   182 0.3174400000000001 0.7648306250000001 0
   183 0.3174400000000001 0.8369199999999997 0
   184 0.3174400000000001 0.8964843750000000 0
   185 0.3174400000000001 0.9420800000000006 0
   186 0.3174400000000001 0.9733881249999993 0
   187 0.3174400000000001 0.9914400000000003 0
   188 0.3174400000000001 0.9988418749999999 0
   189 0.3174400000000001 1.0000000000000000 0
   190 0.4068731250000001 0.0000000000000000 0
   191 0.4068731250000001 0.0011581250000000 0
   192 0.4068731250000001 0.0085600000000000 0
   193 0.4068731250000001 0.0266118750000000 0
   194 0.4068731250000001 0.0579200000000000 0
   195 0.4068731250000001 0.1035156250000000 0
   196 0.4068731250000001 0.1630800000000000 0
   197 0.4068731250000001 0.2351693749999999 0
   198 0.4068731250000001 0.3174400000000001 0
   199 0.4068731250000001 0.4068731250000001 0
   200 0.4068731250000001 0.5000000000000000 0
   201 0.4068731250000001 0.5931268750000003 0
   202 0.4068731250000001 0.6825599999999999 0
   203 0.4068731250000001 0.7648306250000001 0
   204 0.4068731250000001 0.8369199999999997 0
   205 0.4068731250000001 0.8964843750000000 0
   206 0.4068731250000001 0.9420800000000006 0
   207 0.4068731250000001 0.9733881249999993 0
   208 0.4068731250000001 0.9914400000000003 0
   209 0.4068731250000001 0.9988418749999999 0
   210 0.4068731250000001 1.0000000000000000 0
   211 0.5000000000000000 0.0000000000000000 0
   212 0.5000000000000000 0.0011581250000000 0
   213 0.5000000000000000 0.0085600000000000 0
   214 0.5000000000000000 0.0266118750000000 0
   215 0.5000000000000000 0.0579200000000000 0
   216 0.5000000000000000 0.1035156250000000 0
   217 0.5000000000000000 0.1630800000000000 0
   218 0.5000000000000000 0.2351693749999999 0
   219 0.5000000000000000 0.3174400000000001 0
   220 0.5000000000000000 0.4068731250000001 0
   221 0.5000000000000000 0.5000000000000000 0
   222 0.5000000000000000 0.5931268750000003 0
   223 0.5000000000000000 0.6825599999999999 0
   224 0.5000000000000000 0.7648306250000001 0
   225 0.5000000000000000 0.8369199999999997 0
   226 0.5000000000000000 0.8964843750000000 0
   227 0.5000000000000000 0.9420800000000006 0
   228 0.5000000000000000 0.9733881249999993 0
   229 0.5000000000000000 0.9914400000000003 0
   230 0.5000000000000000 0.9988418749999999 0
   231 0.5000000000000000 1.0000000000000000 0
   232 0.5931268750000003 0.0000000000000000 0
   233 0.5931268750000003 0.0011581250000000 0
   234 0.5931268750000003 0.0085600000000000 0
   235 0.5931268750000003 0.0266118750000000 0
   236 0.5931268750000003 0.0579200000000000 0
   237 0.5931268750000003 0.1035156250000000 0
   238 0.5931268750000003 0.1630800000000000 0
   239 0.5931268750000003 0.2351693749999999 0
   240 0.5931268750000003 0.3174400000000001 0
   241 0.5931268750000003 0.4068731250000001 0
   242 0.5931268750000003 0.5000000000000000 0
   243 0.5931268750000003 0.5931268750000003 0
   244 0.5931268750000003 0.6825599999999999 0
   245 0.5931268750000003 0.7648306250000001 0
   246 0.5931268750000003 0.8369199999999997 0
   247 0.5931268750000003 0.8964843750000000 0
   248 0.5931268750000003 0.9420800000000006 0
   249 0.5931268750000003 0.9733881249999993 0
   250 0.5931268750000003 0.9914400000000003 0
   251 0.5931268750000003 0.9988418749999999 0
   252 0.5931268750000003 1.0000000000000000 0
   253 0.6825599999999999 0.0000000000000000 0
   254 0.6825599999999999 0.0011581250000000 0
   255 0.6825599999999999 0.0085600000000000 0
   256 0.6825599999999999 0.0266118750000000 0
   257 0.6825599999999999 0.0579200000000000 0
   258 0.6825599999999999 0.1035156250000000 0
   259 0.6825599999999999 0.1630800000000000 0
   260 0.6825599999999999 0.2351693749999999 0
   261 0.6825599999999999 0.3174400000000001 0
   262 0.6825599999999999 0.4068731250000001 0
   263 0.6825599999999999 0.5000000000000000 0
   264 0.6825599999999999 0.5931268750000003 0
   265 0.6825599999999999 0.6825599999999999 0
   266 0.6825599999999999 0.7648306250000001 0
   267 0.6825599999999999 0.8369199999999997 0
   268 0.6825599999999999 0.8964843750000000 0
   269 0.6825599999999999 0.9420800000000006 0
   270 0.6825599999999999 0.9733881249999993 0
   271 0.6825599999999999 0.9914400000000003 0
   272 0.6825599999999999 0.9988418749999999 0
   273 0.6825599999999999 1.0000000000000000 0
   274 0.7648306250000001 0.0000000000000000 0
   275 0.7648306250000001 0.0011581250000000 0
   276 0.7648306250000001 0.0085600000000000 0
   277 0.7648306250000001 0.0266118750000000 0
   278 0.7648306250000001 0.0579200000000000 0
   279 0.7648306250000001 0.1035156250000000 0
   280 0.7648306250000001 0.1630800000000000 0
   281 0.7648306250000001 0.2351693749999999 0
   282 0.7648306250000001 0.3174400000000001 0
   283 0.7648306250000001 0.4068731250000001 0
   284 0.7648306250000001 0.5000000000000000 0
   285 0.7648306250000001 0.5931268750000003 0
   286 0.7648306250000001 0.6825599999999999 0
   287 0.7648306250000001 0.7648306250000001 0
   288 0.7648306250000001 0.8369199999999997 0
   289 0.7648306250000001 0.8964843750000000 0
   290 0.7648306250000001 0.9420800000000006 0
   291 0.7648306250000001 0.9733881249999993 0
   292 0.7648306250000001 0.9914400000000003 0
   293 0.7648306250000001 0.9988418749999999 0
   294 0.7648306250000001 1.0000000000000000 0
   295 0.8369199999999997 0.0000000000000000 0
   296 0.8369199999999997 0.0011581250000000 0
   297 0.8369199999999997 0.0085600000000000 0
   298 0.8369199999999997 0.0266118750000000 0
   299 0.8369199999999997 0.0579200000000000 0
   300 0.8369199999999997 0.1035156250000000 0
   301 0.8369199999999997 0.1630800000000000 0
   302 0.8369199999999997 0.2351693749999999 0
   303 0.8369199999999997 0.3174400000000001 0
   304 0.8369199999999997 0.4068731250000001 0
   305 0.8369199999999997 0.5000000000000000 0
   306 0.8369199999999997 0.5931268750000003 0
   307 0.8369199999999997 0.6825599999999999 0
   308 0.8369199999999997 0.7648306250000001 0
   309 0.8369199999999997 0.8369199999999997 0
   310 0.8369199999999997 0.8964843750000000 0
   311 0.8369199999999997 0.9420800000000006 0
   312 0.8369199999999997 0.9733881249999993 0
   313 0.8369199999999997 0.9914400000000003 0
   314 0.8369199999999997 0.9988418749999999 0
   315 0.8369199999999997 1.0000000000000000 0
   316 0.8964843750000000 0.0000000000000000 0
   317 0.8964843750000000 0.0011581250000000 0
   318 0.8964843750000000 0.0085600000000000 0
   319 0.8964843750000000 0.0266118750000000 0
   320 0.8964843750000000 0.0579200000000000 0
   321 0.8964843750000000 0.1035156250000000 0
   322 0.8964843750000000 0.1630800000000000 0
   323 0.8964843750000000 0.2351693749999999 0
   324 0.8964843750000000 0.3174400000000001 0
   325 0.8964843750000000 0.4068731250000001 0
   326 0.8964843750000000 0.5000000000000000 0
   327 0.8964843750000000 0.5931268750000003 0
   328 0.8964843750000000 0.6825599999999999 0
   329 0.8964843750000000 0.7648306250000001 0
   330 0.8964843750000000 0.8369199999999997 0
   331 0.8964843750000000 0.8964843750000000 0
   332 0.8964843750000000 0.9420800000000006 0
   333 0.8964843750000000 0.9733881249999993 0
   334 0.8964843750000000 0.9914400000000003 0
   335 0.8964843750000000 0.9988418749999999 0
   336 0.8964843750000000 1.0000000000000000 0
   337 0.9420800000000006 0.0000000000000000 0
   338 0.9420800000000006 0.0011581250000000 0
   339 0.9420800000000006 0.0085600000000000 0
   340 0.9420800000000006 0.0266118750000000 0
   341 0.9420800000000006 0.0579200000000000 0
   342 0.9420800000000006 0.1035156250000000 0
   343 0.9420800000000006 0.1630800000000000 0
   344 0.9420800000000006 0.2351693749999999 0
   345 0.9420800000000006 0.3174400000000001 0
   346 0.9420800000000006 0.4068731250000001 0
   347 0.9420800000000006 0.5000000000000000 0
   348 0.9420800000000006 0.5931268750000003 0
   349 0.9420800000000006 0.6825599999999999 0
   350 0.9420800000000006 0.7648306250000001 0
   351 0.9420800000000006 0.8369199999999997 0
   352 0.9420800000000006 0.8964843750000000 0
   353 0.9420800000000006 0.9420800000000006 0
   354 0.9420800000000006 0.9733881249999993 0
   355 0.9420800000000006 0.9914400000000003 0
   356 0.9420800000000006 0.9988418749999999 0
   357 0.9420800000000006 1.0000000000000000 0
   358 0.9733881249999993 0.0000000000000000 0
   359 0.9733881249999993 0.0011581250000000 0
   360 0.9733881249999993 0.0085600000000000 0
   361 0.9733881249999993 0.0266118750000000 0
   362 0.9733881249999993 0.0579200000000000 0
   363 0.9733881249999993 0.1035156250000000 0
   364 0.9733881249999993 0.1630800000000000 0
   365 0.9733881249999993 0.2351693749999999 0
   366 0.9733881249999993 0.3174400000000001 0
   367 0.9733881249999993 0.4068731250000001 0
   368 0.9733881249999993 0.5000000000000000 0
   369 0.9733881249999993 0.5931268750000003 0
   370 0.9733881249999993 0.6825599999999999 0
   371 0.9733881249999993 0.7648306250000001 0
   372 0.9733881249999993 0.8369199999999997 0
   373 0.9733881249999993 0.8964843750000000 0
   374 0.9733881249999993 0.9420800000000006 0
   375 0.9733881249999993 0.9733881249999993 0
   376 0.9733881249999993 0.9914400000000003 0
   377 0.9733881249999993 0.9988418749999999 0
   378 0.9733881249999993 1.0000000000000000 0
   379 0.9914400000000003 0.0000000000000000 0
   380 0.9914400000000003 0.0011581250000000 0
   381 0.9914400000000003 0.0085600000000000 0
   382 0.9914400000000003 0.0266118750000000 0
   383 0.9914400000000003 0.0579200000000000 0
   384 0.9914400000000003 0.1035156250000000 0
   385 0.9914400000000003 0.1630800000000000 0
   386 0.9914400000000003 0.2351693749999999 0
   387 0.9914400000000003 0.3174400000000001 0
   388 0.9914400000000003 0.4068731250000001 0
   389 0.9914400000000003 0.5000000000000000 0
   390 0.9914400000000003 0.5931268750000003 0
   391 0.9914400000000003 0.6825599999999999 0
   392 0.9914400000000003 0.7648306250000001 0
   393 0.9914400000000003 0.8369199999999997 0
   394 0.9914400000000003 0.8964843750000000 0
   395 0.9914400000000003 0.9420800000000006 0
   396 0.9914400000000003 0.9733881249999993 0
   397 0.9914400000000003 0.9914400000000003 0
   398 0.9914400000000003 0.9988418749999999 0
   399 0.9914400000000003 1.0000000000000000 0
   400 0.9988418749999999 0.0000000000000000 0
   401 0.9988418749999999 0.0011581250000000 0
   402 0.9988418749999999 0.0085600000000000 0
   403 0.9988418749999999 0.0266118750000000 0
   404 0.9988418749999999 0.0579200000000000 0
   405 0.9988418749999999 0.1035156250000000 0
   406 0.9988418749999999 0.1630800000000000 0
   407 0.9988418749999999 0.2351693749999999 0
   408 0.9988418749999999 0.3174400000000001 0
   409 0.9988418749999999 0.4068731250000001 0
   410 0.9988418749999999 0.5000000000000000 0
   411 0.9988418749999999 0.5931268750000003 0
   412 0.9988418749999999 0.6825599999999999 0
   413 0.9988418749999999 0.7648306250000001 0
   414 0.9988418749999999 0.8369199999999997 0
   415 0.9988418749999999 0.8964843750000000 0
   416 0.9988418749999999 0.9420800000000006 0
   417 0.9988418749999999 0.9733881249999993 0
   418 0.9988418749999999 0.9914400000000003 0
   419 0.9988418749999999 0.9988418749999999 0
   420 0.9988418749999999 1.0000000000000000 0
   421 1.0000000000000000 0.0000000000000000 0
   422 1.0000000000000000 0.0011581250000000 0
   423 1.0000000000000000 0.0085600000000000 0
   424 1.0000000000000000 0.0266118750000000 0
   425 1.0000000000000000 0.0579200000000000 0
   426 1.0000000000000000 0.1035156250000000 0
   427 1.0000000000000000 0.1630800000000000 0
   428 1.0000000000000000 0.2351693749999999 0
   429 1.0000000000000000 0.3174400000000001 0
   430 1.0000000000000000 0.4068731250000001 0
   431 1.0000000000000000 0.5000000000000000 0
   432 1.0000000000000000 0.5931268750000003 0
   433 1.0000000000000000 0.6825599999999999 0
   434 1.0000000000000000 0.7648306250000001 0
   435 1.0000000000000000 0.8369199999999997 0
   436 1.0000000000000000 0.8964843750000000 0
   437 1.0000000000000000 0.9420800000000006 0
   438 1.0000000000000000 0.9733881249999993 0
   439 1.0000000000000000 0.9914400000000003 0
   440 1.0000000000000000 0.9988418749999999 0
   441 1.0000000000000000 1.0000000000000000 0
$EndNodes
$Elements
   880
     1 1 2 11 5     1    22
     2 1 2 11 5    22    43
     3 1 2 11 5    43    64
     4 1 2 11 5    64    85
     5 1 2 11 5    85   106
     6 1 2 11 5   106   127
     7 1 2 11 5   127   148
     8 1 2 11 5   148   169
     9 1 2 11 5   169   190
    10 1 2 11 5   190   211
    11 1 2 11 5   211   232
    12 1 2 11 5   232   253
    13 1 2 11 5   253   274
    14 1 2 11 5   274   295
    15 1 2 11 5   295   316
    16 1 2 11 5   316   337
    17 1 2 11 5   337   358
    18 1 2 11 5   358   379
    19 1 2 11 5   379   400
    20 1 2 11 5   400   421
    21 1 2 12 6   441   420
    22 1 2 12 6   420   399
    23 1 2 12 6   399   378
    24 1 2 12 6   378   357
    25 1 2 12 6   357   336
    26 1 2 12 6   336   315
    27 1 2 12 6   315   294
    28 1 2 12 6   294   273
    29 1 2 12 6   273   252
    30 1 2 12 6   252   231
    31 1 2 12 6   231   210
    32 1 2 12 6   210   189
    33 1 2 12 6   189   168
    34 1 2 12 6   168   147
    35 1 2 12 6   147   126
    36 1 2 12 6   126   105
    37 1 2 12 6   105    84
    38 1 2 12 6    84    63
    39 1 2 12 6    63    42
    40 1 2 12 6    42    21
    41 1 2 13 7   421   422
    42 1 2 13 7   422   423
    43 1 2 13 7   423   424
    44 1 2 13 7   424   425
    45 1 2 13 7   425   426
    46 1 2 13 7   426   427
    47 1 2 13 7   427   428
    48 1 2 13 7   428   429
    49 1 2 13 7   429   430
    50 1 2 13 7   430   431
    51 1 2 13 7   431   432
    52 1 2 13 7   432   433
    53 1 2 13 7   433   434
    54 1 2 13 7   434   435
    55 1 2 13 7   435   436
    56 1 2 13 7   436   437
    57 1 2 13 7   437   438
    58 1 2 13 7   438   439
    59 1 2 13 7   439   440
    60 1 2 13 7   440   441
    61 1 2 14 8    21    20
    62 1 2 14 8    20    19
    63 1 2 14 8    19    18
    64 1 2 14 8    18    17
    65 1 2 14 8    17    16
    66 1 2 14 8    16    15
    67 1 2 14 8    15    14
    68 1 2 14 8    14    13
    69 1 2 14 8    13    12
    70 1 2 14 8    12    11
    71 1 2 14 8    11    10
    72 1 2 14 8    10     9
    73 1 2 14 8     9     8
    74 1 2 14 8     8     7
    75 1 2 14 8     7     6
    76 1 2 14 8     6     5
    77 1 2 14 8     5     4
    78 1 2 14 8     4     3
    79 1 2 14 8     3     2
    80 1 2 14 8     2     1
    81 2 2 15 10     1    22    23
    82 2 2 15 10     1    23     2
    83 2 2 15 10     2    23    24
    84 2 2 15 10     2    24     3
    85 2 2 15 10     3    24    25
    86 2 2 15 10     3    25     4
    87 2 2 15 10     4    25    26
    88 2 2 15 10     4    26     5
    89 2 2 15 10     5    26    27
    90 2 2 15 10     5    27     6
    91 2 2 15 10     6    27    28
    92 2 2 15 10     6    28     7
    93 2 2 15 10     7    28    29
    94 2 2 15 10     7    29     8
    95 2 2 15 10     8    29    30
    96 2 2 15 10     8    30     9
    97 2 2 15 10     9    30    31
    98 2 2 15 10     9    31    10
    99 2 2 15 10    10    31    32
   100 2 2 15 10    10    32    11
   101 2 2 15 10    11    32    12
   102 2 2 15 10    12    32    33
   103 2 2 15 10    12    33    13
   104 2 2 15 10    13    33    34
   105 2 2 15 10    13    34    14
   106 2 2 15 10    14    34    35
   107 2 2 15 10    14    35    15
   108 2 2 15 10    15    35    36
   109 2 2 15 10    15    36    16
   110 2 2 15 10    16    36    37
   111 2 2 15 10    16    37    17
   112 2 2 15 10    17    37    38
   113 2 2 15 10    17    38    18
   114 2 2 15 10    18    38    39
   115 2 2 15 10    18    39    19
   116 2 2 15 10    19    39    40
   117 2 2 15 10    19    40    20
   118 2 2 15 10    20    40    41
   119 2 2 15 10    20    41    21
   120 2 2 15 10    21    41    42
   121 2 2 15 10    22    43    44
   122 2 2 15 10    22    44    23
   123 2 2 15 10    23    44    45
   124 2 2 15 10    23    45    24
   125 2 2 15 10    24    45    46
   126 2 2 15 10    24    46    25
   127 2 2 15 10    25    46    47
   128 2 2 15 10    25    47    26
   129 2 2 15 10    26    47    48
   130 2 2 15 10    26    48    27
   131 2 2 15 10    27    48    49
   132 2 2 15 10    27    49    28
   133 2 2 15 10    28    49    50
   134 2 2 15 10    28    50    29
   135 2 2 15 10    29    50    51
   136 2 2 15 10    29    51    30
   137 2 2 15 10    30    51    52
   138 2 2 15 10    30    52    31
   139 2 2 15 10    31    52    53
   140 2 2 15 10    31    53    32
   141 2 2 15 10    32    53    33
   142 2 2 15 10    33    53    54
   143 2 2 15 10    33    54    34
   144 2 2 15 10    34    54    55
   145 2 2 15 10    34    55    35
   146 2 2 15 10    35    55    56
   147 2 2 15 10    35    56    36
   148 2 2 15 10    36    56    57
   149 2 2 15 10    36    57    37
   150 2 2 15 10    37    57    58
   151 2 2 15 10    37    58    38
   152 2 2 15 10    38    58    59
   153 2 2 15 10    38    59    39
   154 2 2 15 10    39    59    60
   155 2 2 15 10    39    60    40
   156 2 2 15 10    40    60    61
   157 2 2 15 10    40    61    41
   158 2 2 15 10    41    61    62
   159 2 2 15 10    41    62    42
   160 2 2 15 10    42    62    63
   161 2 2 15 10    43    64    65
   162 2 2 15 10    43    65    44
   163 2 2 15 10    44    65    66
   164 2 2 15 10    44    66    45
   165 2 2 15 10    45    66    67
   166 2 2 15 10    45    67    46
   167 2 2 15 10    46    67    68
   168 2 2 15 10    46    68    47
   169 2 2 15 10    47    68    69
   170 2 2 15 10    47    69    48
   171 2 2 15 10    48    69    70
   172 2 2 15 10    48    70    49
   173 2 2 15 10    49    70    71
   174 2 2 15 10    49    71    50
   175 2 2 15 10    50    71    72
   176 2 2 15 10    50    72    51
   177 2 2 15 10    51    72    73
   178 2 2 15 10    51    73    52
   179 2 2 15 10    52    73    74
   180 2 2 15 10    52    74    53
   181 2 2 15 10    53    74    54
   182 2 2 15 10    54    74    75
   183 2 2 15 10    54    75    55
   184 2 2 15 10    55    75    76
   185 2 2 15 10    55    76    56
   186 2 2 15 10    56    76    77
   187 2 2 15 10    56    77    57
   188 2 2 15 10    57    77    78
   189 2 2 15 10    57    78    58
   190 2 2 15 10    58    78    79
   191 2 2 15 10    58    79    59
   192 2 2 15 10    59    79    80
   193 2 2 15 10    59    80    60
   194 2 2 15 10    60    80    81
   195 2 2 15 10    60    81    61
   196 2 2 15 10    61    81    82
   197 2 2 15 10    61    82    62
   198 2 2 15 10    62    82    83
   199 2 2 15 10    62    83    63
   200 2 2 15 10    63    83    84
   201 2 2 15 10    64    85    86
   202 2 2 15 10    64    86    65
   203 2 2 15 10    65    86    87
   204 2 2 15 10    65    87    66
   205 2 2 15 10    66    87    88
   206 2 2 15 10    66    88    67
   207 2 2 15 10    67    88    89
   208 2 2 15 10    67    89    68
   209 2 2 15 10    68    89    90
   210 2 2 15 10    68    90    69
   211 2 2 15 10    69    90    91
   212 2 2 15 10    69    91    70
   213 2 2 15 10    70    91    92
   214 2 2 15 10    70    92    71
   215 2 2 15 10    71    92    93
   216 2 2 15 10    71    93    72
   217 2 2 15 10    72    93    94
   218 2 2 15 10    72    94    73
   219 2 2 15 10    73    94    95
   220 2 2 15 10    73    95    74
   221 2 2 15 10    74    95    75
   222 2 2 15 10    75    95    96
   223 2 2 15 10    75    96    76
   224 2 2 15 10    76    96    97
   225 2 2 15 10    76    97    77
   226 2 2 15 10    77    97    98
   227 2 2 15 10    77    98    78
   228 2 2 15 10    78    98    99
   229 2 2 15 10    78    99    79
   230 2 2 15 10    79    99   100
   231 2 2 15 10    79   100    80
   232 2 2 15 10    80   100   101
   233 2 2 15 10    80   101    81
   234 2 2 15 10    81   101   102
   235 2 2 15 10    81   102    82
   236 2 2 15 10    82   102   103
   237 2 2 15 10    82   103    83
   238 2 2 15 10    83   103   104
   239 2 2 15 10    83   104    84
   240 2 2 15 10    84   104   105
   241 2 2 15 10    85   106   107
   242 2 2 15 10    85   107    86
   243 2 2 15 10    86   107   108
   244 2 2 15 10    86   108    87
   245 2 2 15 10    87   108   109
   246 2 2 15 10    87   109    88
   247 2 2 15 10    88   109   110
   248 2 2 15 10    88   110    89
   249 2 2 15 10    89   110   111
   250 2 2 15 10    89   111    90
   251 2 2 15 10    90   111   112
   252 2 2 15 10    90   112    91
   253 2 2 15 10    91   112   113
   254 2 2 15 10    91   113    92
   255 2 2 15 10    92   113   114
   256 2 2 15 10    92   114    93
   257 2 2 15 10    93   114   115
   258 2 2 15 10    93   115    94
   259 2 2 15 10    94   115   116
   260 2 2 15 10    94   116    95
   261 2 2 15 10    95   116    96
   262 2 2 15 10    96   116   117
   263 2 2 15 10    96   117    97
   264 2 2 15 10    97   117   118
   265 2 2 15 10    97   118    98
   266 2 2 15 10    98   118   119
   267 2 2 15 10    98   119    99
   268 2 2 15 10    99   119   120
   269 2 2 15 10    99   120   100
   270 2 2 15 10   100   120   121
   271 2 2 15 10   100   121   101
   272 2 2 15 10   101   121   122
   273 2 2 15 10   101   122   102
   274 2 2 15 10   102   122   123
   275 2 2 15 10   102   123   103
   276 2 2 15 10   103   123   124
   277 2 2 15 10   103   124   104
   278 2 2 15 10   104   124   125
   279 2 2 15 10   104   125   105
   280 2 2 15 10   105   125   126
   281 2 2 15 10   106   127   128
   282 2 2 15 10   106   128   107
   283 2 2 15 10   107   128   129
   284 2 2 15 10   107   129   108
   285 2 2 15 10   108   129   130
   286 2 2 15 10   108   130   109
   287 2 2 15 10   109   130   131
   288 2 2 15 10   109   131   110
   289 2 2 15 10   110   131   132
   290 2 2 15 10   110   132   111
   291 2 2 15 10   111   132   133
   292 2 2 15 10   111   133   112
   293 2 2 15 10   112   133   134
   294 2 2 15 10   112   134   113
   295 2 2 15 10   113   134   135
   296 2 2 15 10   113   135   114
   297 2 2 15 10   114   135   136
   298 2 2 15 10   114   136   115
   299 2 2 15 10   115   136   137
   300 2 2 15 10   115   137   116
   301 2 2 15 10   116   137   117
   302 2 2 15 10   117   137   138
   303 2 2 15 10   117   138   118
   304 2 2 15 10   118   138   139
   305 2 2 15 10   118   139   119
   306 2 2 15 10   119   139   140
   307 2 2 15 10   119   140   120
   308 2 2 15 10   120   140   141
   309 2 2 15 10   120   141   121
   310 2 2 15 10   121   141   142
   311 2 2 15 10   121   142   122
   312 2 2 15 10   122   142   143
   313 2 2 15 10   122   143   123
   314 2 2 15 10   123   143   144
   315 2 2 15 10   123   144   124
   316 2 2 15 10   124   144   145
   317 2 2 15 10   124   145   125
   318 2 2 15 10   125   145   146
   319 2 2 15 10   125   146   126
   320 2 2 15 10   126   146   147
   321 2 2 15 10   127   148   149
   322 2 2 15 10   127   149   128
   323 2 2 15 10   128   149   150
   324 2 2 15 10   128   150   129
   325 2 2 15 10   129   150   151
   326 2 2 15 10   129   151   130
   327 2 2 15 10   130   151   152
   328 2 2 15 10   130   152   131
   329 2 2 15 10   131   152   153
   330 2 2 15 10   131   153   132
   331 2 2 15 10   132   153   154
   332 2 2 15 10   132   154   133
   333 2 2 15 10   133   154   155
   334 2 2 15 10   133   155   134
   335 2 2 15 10   134   155   156
   336 2 2 15 10   134   156   135
   337 2 2 15 10   135   156   157
   338 2 2 15 10   135   157   136
   339 2 2 15 10   136   157   158
   340 2 2 15 10   136   158   137
   341 2 2 15 10   137   158   138
   342 2 2 15 10   138   158   159
   343 2 2 15 10   138   159   139
   344 2 2 15 10   139   159   160
   345 2 2 15 10   139   160   140
   346 2 2 15 10   140   160   161
   347 2 2 15 10   140   161   141
   348 2 2 15 10   141   161   162
   349 2 2 15 10   141   162   142
   350 2 2 15 10   142   162   163
   351 2 2 15 10   142   163   143
   352 2 2 15 10   143   163   164
   353 2 2 15 10   143   164   144
   354 2 2 15 10   144   164   165
   355 2 2 15 10   144   165   145
   356 2 2 15 10   145   165   166
   357 2 2 15 10   145   166   146
   358 2 2 15 10   146   166   167
   359 2 2 15 10   146   167   147
   360 2 2 15 10   147   167   168
   361 2 2 15 10   148   169   170
   362 2 2 15 10   148   170   149
   363 2 2 15 10   149   170   171
   364 2 2 15 10   149   171   150
   365 2 2 15 10   150   171   172
   366 2 2 15 10   150   172   151
   367 2 2 15 10   151   172   173
   368 2 2 15 10   151   173   152
   369 2 2 15 10   152   173   174
   370 2 2 15 10   152   174   153
   371 2 2 15 10   153   174   175
   372 2 2 15 10   153   175   154
   373 2 2 15 10   154   175   176
   374 2 2 15 10   154   176   155
   375 2 2 15 10   155   176   177
   376 2 2 15 10   155   177   156
   377 2 2 15 10   156   177   178
   378 2 2 15 10   156   178   157
   379 2 2 15 10   157   178   179
   380 2 2 15 10   157   179   158
   381 2 2 15 10   158   179   159
   382 2 2 15 10   159   179   180
   383 2 2 15 10   159   180   160
   384 2 2 15 10   160   180   181
   385 2 2 15 10   160   181   161
   386 2 2 15 10   161   181   182
   387 2 2 15 10   161   182   162
   388 2 2 15 10   162   182   183
   389 2 2 15 10   162   183   163
   390 2 2 15 10   163   183   184
   391 2 2 15 10   163   184   164
   392 2 2 15 10   164   184   185
   393 2 2 15 10   164   185   165
   394 2 2 15 10   165   185   186
   395 2 2 15 10   165   186   166
   396 2 2 15 10   166   186   187
   397 2 2 15 10   166   187   167
   398 2 2 15 10   167   187   188
   399 2 2 15 10   167   188   168
   400 2 2 15 10   168   188   189
   401 2 2 15 10   169   190   191
   402 2 2 15 10   169   191   170
   403 2 2 15 10   170   191   192
   404 2 2 15 10   170   192   171
   405 2 2 15 10   171   192   193
   406 2 2 15 10   171   193   172
   407 2 2 15 10   172   193   194
   408 2 2 15 10   172   194   173
   409 2 2 15 10   173   194   195
   410 2 2 15 10   173   195   174
   411 2 2 15 10   174   195   196
   412 2 2 15 10   174   196   175
   413 2 2 15 10   175   196   197
   414 2 2 15 10   175   197   176
   415 2 2 15 10   176   197   198
   416 2 2 15 10   176   198   177
   417 2 2 15 10   177   198   199
   418 2 2 15 10   177   199   178
   419 2 2 15 10   178   199   200
   420 2 2 15 10   178   200   179
   421 2 2 15 10   179   200   180
   422 2 2 15 10   180   200   201
   423 2 2 15 10   180   201   181
   424 2 2 15 10   181   201   202
   425 2 2 15 10   181   202   182
   426 2 2 15 10   182   202   203
   427 2 2 15 10   182   203   183
   428 2 2 15 10   183   203   204
   429 2 2 15 10   183   204   184
   430 2 2 15 10   184   204   205
   431 2 2 15 10   184   205   185
   432 2 2 15 10   185   205   206
   433 2 2 15 10   185   206   186
   434 2 2 15 10   186   206   207
   435 2 2 15 10   186   207   187
   436 2 2 15 10   187   207   208
   437 2 2 15 10   187   208   188
   438 2 2 15 10   188   208   209
   439 2 2 15 10   188   209   189
   440 2 2 15 10   189   209   210
   441 2 2 15 10   190   211   212
   442 2 2 15 10   190   212   191
   443 2 2 15 10   191   212   213
   444 2 2 15 10   191   213   192
   445 2 2 15 10   192   213   214
   446 2 2 15 10   192   214   193
   447 2 2 15 10   193   214   215
   448 2 2 15 10   193   215   194
   449 2 2 15 10   194   215   216
   450 2 2 15 10   194   216   195
   451 2 2 15 10   195   216   217
   452 2 2 15 10   195   217   196
   453 2 2 15 10   196   217   218
   454 2 2 15 10   196   218   197
   455 2 2 15 10   197   218   219
   456 2 2 15 10   197   219   198
   457 2 2 15 10   198   219   220
   458 2 2 15 10   198   220   199
   459 2 2 15 10   199   220   221
   460 2 2 15 10   199   221   200
   461 2 2 15 10   200   221   201
   462 2 2 15 10   201   221   222
   463 2 2 15 10   201   222   202
   464 2 2 15 10   202   222   223
   465 2 2 15 10   202   223   203
   466 2 2 15 10   203   223   224
   467 2 2 15 10   203   224   204
   468 2 2 15 10   204   224   225
   469 2 2 15 10   204   225   205
   470 2 2 15 10   205   225   226
   471 2 2 15 10   205   226   206
   472 2 2 15 10   206   226   227
   473 2 2 15 10   206   227   207
   474 2 2 15 10   207   227   228
   475 2 2 15 10   207   228   208
   476 2 2 15 10   208   228   229
   477 2 2 15 10   208   229   209
   478 2 2 15 10   209   229   230
   479 2 2 15 10   209   230   210
   480 2 2 15 10   210   230   231
   481 2 2 15 10   211   232   212
   482 2 2 15 10   212   232   233
   483 2 2 15 10   212   233   213
   484 2 2 15 10   213   233   234
   485 2 2 15 10   213   234   214
   486 2 2 15 10   214   234   235
   487 2 2 15 10   214   235   215
   488 2 2 15 10   215   235   236
   489 2 2 15 10   215   236   216
   490 2 2 15 10   216   236   237
   491 2 2 15 10   216   237   217
   492 2 2 15 10   217   237   238
   493 2 2 15 10   217   238   218
   494 2 2 15 10   218   238   239
   495 2 2 15 10   218   239   219
   496 2 2 15 10   219   239   240
   497 2 2 15 10   219   240   220
   498 2 2 15 10   220   240   241
   499 2 2 15 10   220   241   221
   500 2 2 15 10   221   241   242
   501 2 2 15 10   221   242   243
   502 2 2 15 10   221   243   222
   503 2 2 15 10   222   243   244
   504 2 2 15 10   222   244   223
   505 2 2 15 10   223   244   245
   506 2 2 15 10   223   245   224
   507 2 2 15 10   224   245   246
   508 2 2 15 10   224   246   225
   509 2 2 15 10   225   246   247
   510 2 2 15 10   225   247   226
   511 2 2 15 10   226   247   248
   512 2 2 15 10   226   248   227
   513 2 2 15 10   227   248   249
   514 2 2 15 10   227   249   228
   515 2 2 15 10   228   249   250
   516 2 2 15 10   228   250   229
   517 2 2 15 10   229   250   251
   518 2 2 15 10   229   251   230
   519 2 2 15 10   230   251   252
   520 2 2 15 10   230   252   231
   521 2 2 15 10   232   253   233
   522 2 2 15 10   233   253   254
   523 2 2 15 10   233   254   234
   524 2 2 15 10   234   254   255
   525 2 2 15 10   234   255   235
   526 2 2 15 10   235   255   256
   527 2 2 15 10   235   256   236
   528 2 2 15 10   236   256   257
   529 2 2 15 10   236   257   237
   530 2 2 15 10   237   257   258
   531 2 2 15 10   237   258   238
   532 2 2 15 10   238   258   259
   533 2 2 15 10   238   259   239
   534 2 2 15 10   239   259   260
   535 2 2 15 10   239   260   240
   536 2 2 15 10   240   260   261
   537 2 2 15 10   240   261   241
   538 2 2 15 10   241   261   262
   539 2 2 15 10   241   262   242
   540 2 2 15 10   242   262   263
   541 2 2 15 10   242   263   264
   542 2 2 15 10   242   264   243
   543 2 2 15 10   243   264   265
   544 2 2 15 10   243   265   244
   545 2 2 15 10   244   265   266
   546 2 2 15 10   244   266   245
   547 2 2 15 10   245   266   267
   548 2 2 15 10   245   267   246
   549 2 2 15 10   246   267   268
   550 2 2 15 10   246   268   247
   551 2 2 15 10   247   268   269
   552 2 2 15 10   247   269   248
   553 2 2 15 10   248   269   270
   554 2 2 15 10   248   270   249
   555 2 2 15 10   249   270   271
   556 2 2 15 10   249   271   250
   557 2 2 15 10   250   271   272
   558 2 2 15 10   250   272   251
   559 2 2 15 10   251   272   273
   560 2 2 15 10   251   273   252
   561 2 2 15 10   253   274   254
   562 2 2 15 10   254   274   275
   563 2 2 15 10   254   275   255
   564 2 2 15 10   255   275   276
   565 2 2 15 10   255   276   256
   566 2 2 15 10   256   276   277
   567 2 2 15 10   256   277   257
   568 2 2 15 10   257   277   278
   569 2 2 15 10   257   278   258
   570 2 2 15 10   258   278   279
   571 2 2 15 10   258   279   259
   572 2 2 15 10   259   279   280
   573 2 2 15 10   259   280   260
   574 2 2 15 10   260   280   281
   575 2 2 15 10   260   281   261
   576 2 2 15 10   261   281   282
   577 2 2 15 10   261   282   262
   578 2 2 15 10   262   282   283
   579 2 2 15 10   262   283   263
   580 2 2 15 10   263   283   284
   581 2 2 15 10   263   284   285
   582 2 2 15 10   263   285   264
   583 2 2 15 10   264   285   286
   584 2 2 15 10   264   286   265
   585 2 2 15 10   265   286   287
   586 2 2 15 10   265   287   266
   587 2 2 15 10   266   287   288
   588 2 2 15 10   266   288   267
   589 2 2 15 10   267   288   289
   590 2 2 15 10   267   289   268
   591 2 2 15 10   268   289   290
   592 2 2 15 10   268   290   269
   593 2 2 15 10   269   290   291
   594 2 2 15 10   269   291   270
   595 2 2 15 10   270   291   292
   596 2 2 15 10   270   292   271
   597 2 2 15 10   271   292   293
   598 2 2 15 10   271   293   272
   599 2 2 15 10   272   293   294
   600 2 2 15 10   272   294   273
   601 2 2 15 10   274   295   275
   602 2 2 15 10   275   295   296
   603 2 2 15 10   275   296   276
   604 2 2 15 10   276   296   297
   605 2 2 15 10   276   297   277
   606 2 2 15 10   277   297   298
   607 2 2 15 10   277   298   278
   608 2 2 15 10   278   298   299
   609 2 2 15 10   278   299   279
   610 2 2 15 10   279   299   300
   611 2 2 15 10   279   300   280
   612 2 2 15 10   280   300   301
   613 2 2 15 10   280   301   281
   614 2 2 15 10   281   301   302
   615 2 2 15 10   281   302   282
   616 2 2 15 10   282   302   303
   617 2 2 15 10   282   303   283
   618 2 2 15 10   283   303   304
   619 2 2 15 10   283   304   284
   620 2 2 15 10   284   304   305
   621 2 2 15 10   284   305   306
   622 2 2 15 10   284   306   285
   623 2 2 15 10   285   306   307
   624 2 2 15 10   285   307   286
   625 2 2 15 10   286   307   308
   626 2 2 15 10   286   308   287
   627 2 2 15 10   287   308   309
   628 2 2 15 10   287   309   288
   629 2 2 15 10   288   309   310
   630 2 2 15 10   288   310   289
   631 2 2 15 10   289   310   311
   632 2 2 15 10   289   311   290
   633 2 2 15 10   290   311   312
   634 2 2 15 10   290   312   291
   635 2 2 15 10   291   312   313
   636 2 2 15 10   291   313   292
   637 2 2 15 10   292   313   314
   638 2 2 15 10   292   314   293
   639 2 2 15 10   293   314   315
   640 2 2 15 10   293   315   294
   641 2 2 15 10   295   316   296
   642 2 2 15 10   296   316   317
   643 2 2 15 10   296   317   297
   644 2 2 15 10   297   317   318
   645 2 2 15 10   297   318   298
   646 2 2 15 10   298   318   319
   647 2 2 15 10   298   319   299
   648 2 2 15 10   299   319   320
   649 2 2 15 10   299   320   300
   650 2 2 15 10   300   320   321
   651 2 2 15 10   300   321   301
   652 2 2 15 10   301   321   322
   653 2 2 15 10   301   322   302
   654 2 2 15 10   302   322   323
   655 2 2 15 10   302   323   303
   656 2 2 15 10   303   323   324
   657 2 2 15 10   303   324   304
   658 2 2 15 10   304   324   325
   659 2 2 15 10   304   325   305
   660 2 2 15 10   305   325   326
   661 2 2 15 10   305   326   327
   662 2 2 15 10   305   327   306
   663 2 2 15 10   306   327   328
   664 2 2 15 10   306   328   307
   665 2 2 15 10   307   328   329
   666 2 2 15 10   307   329   308
   667 2 2 15 10   308   329   330
   668 2 2 15 10   308   330   309
   669 2 2 15 10   309   330   331
   670 2 2 15 10   309   331   310
   671 2 2 15 10   310   331   332
   672 2 2 15 10   310   332   311
   673 2 2 15 10   311   332   333
   674 2 2 15 10   311   333   312
   675 2 2 15 10   312   333   334
   676 2 2 15 10   312   334   313
   677 2 2 15 10   313   334   335
   678 2 2 15 10   313   335   314
   679 2 2 15 10   314   335   336
   680 2 2 15 10   314   336   315
   681 2 2 15 10   316   337   317
   682 2 2 15 10   317   337   338
   683 2 2 15 10   317   338   318
   684 2 2 15 10   318   338   339
   685 2 2 15 10   318   339   319
   686 2 2 15 10   319   339   340
   687 2 2 15 10   319   340   320
   688 2 2 15 10   320   340   341
   689 2 2 15 10   320   341   321
   690 2 2 15 10   321   341   342
   691 2 2 15 10   321   342   322
   692 2 2 15 10   322   342   343
   693 2 2 15 10   322   343   323
   694 2 2 15 10   323   343   344
   695 2 2 15 10   323   344   324
   696 2 2 15 10   324   344   345
   697 2 2 15 10   324   345   325
   698 2 2 15 10   325   345   346
   699 2 2 15 10   325   346   326
   700 2 2 15 10   326   346   347
   701 2 2 15 10   326   347   348
   702 2 2 15 10   326   348   327
   703 2 2 15 10   327   348   349
   704 2 2 15 10   327   349   328
   705 2 2 15 10   328   349   350
   706 2 2 15 10   328   350   329
   707 2 2 15 10   329   350   351
   708 2 2 15 10   329   351   330
   709 2 2 15 10   330   351   352
   710 2 2 15 10   330   352   331
   711 2 2 15 10   331   352   353
   712 2 2 15 10   331   353   332
   713 2 2 15 10   332   353   354
   714 2 2 15 10   332   354   333
   715 2 2 15 10   333   354   355
   716 2 2 15 10   333   355   334
   717 2 2 15 10   334   355   356
   718 2 2 15 10   334   356   335
   719 2 2 15 10   335   356   357
   720 2 2 15 10   335   357   336
   721 2 2 15 10   337   358   338
   722 2 2 15 10   338   358   359
   723 2 2 15 10   338   359   339
   724 2 2 15 10   339   359   360
   725 2 2 15 10   339   360   340
   726 2 2 15 10   340   360   361
   727 2 2 15 10   340   361   341
   728 2 2 15 10   341   361   362
   729 2 2 15 10   341   362   342
   730 2 2 15 10   342   362   363
   731 2 2 15 10   342   363   343
   732 2 2 15 10   343   363   364
   733 2 2 15 10   343   364   344
   734 2 2 15 10   344   364   365
   735 2 2 15 10   344   365   345
   736 2 2 15 10   345   365   366
   737 2 2 15 10   345   366   346
   738 2 2 15 10   346   366   367
   739 2 2 15 10   346   367   347
   740 2 2 15 10   347   367   368
   741 2 2 15 10   347   368   369
   742 2 2 15 10   347   369   348
   743 2 2 15 10   348   369   370
   744 2 2 15 10   348   370   349
   745 2 2 15 10   349   370   371
   746 2 2 15 10   349   371   350
   747 2 2 15 10   350   371   372
   748 2 2 15 10   350   372   351
   749 2 2 15 10   351   372   373
   750 2 2 15 10   351   373   352
   751 2 2 15 10   352   373   374
   752 2 2 15 10   352   374   353
   753 2 2 15 10   353   374   375
   754 2 2 15 10   353   375   354
   755 2 2 15 10   354   375   376
   756 2 2 15 10   354   376   355
   757 2 2 15 10   355   376   377
   758 2 2 15 10   355   377   356
   759 2 2 15 10   356   377   378
   760 2 2 15 10   356   378   357
   761 2 2 15 10   358   379   359
   762 2 2 15 10   359   379   380
   763 2 2 15 10   359   380   360
   764 2 2 15 10   360   380   381
   765 2 2 15 10   360   381   361
   766 2 2 15 10   361   381   382
   767 2 2 15 10   361   382   362
   768 2 2 15 10   362   382   383
   769 2 2 15 10   362   383   363
   770 2 2 15 10   363   383   384
   771 2 2 15 10   363   384   364
   772 2 2 15 10   364   384   385
   773 2 2 15 10   364   385   365
   774 2 2 15 10   365   385   386
   775 2 2 15 10   365   386   366
   776 2 2 15 10   366   386   387
   777 2 2 15 10   366   387   367
   778 2 2 15 10   367   387   388
   779 2 2 15 10   367   388   368
   780 2 2 15 10   368   388   389
   781 2 2 15 10   368   389   390
   782 2 2 15 10   368   390   369
   783 2 2 15 10   369   390   391
   784 2 2 15 10   369   391   370
   785 2 2 15 10   370   391   392
   786 2 2 15 10   370   392   371
   787 2 2 15 10   371   392   393
   788 2 2 15 10   371   393   372
   789 2 2 15 10   372   393   394
   790 2 2 15 10   372   394   373
   791 2 2 15 10   373   394   395
   792 2 2 15 10   373   395   374
   793 2 2 15 10   374   395   396
   794 2 2 15 10   374   396   375
   795 2 2 15 10   375   396   397
   796 2 2 15 10   375   397   376
   797 2 2 15 10   376   397   398
   798 2 2 15 10   376   398   377
   799 2 2 15 10   377   398   399
   800 2 2 15 10   377   399   378
   801 2 2 15 10   379   400   380
   802 2 2 15 10   380   400   401
   803 2 2 15 10   380   401   381
   804 2 2 15 10   381   401   402
   805 2 2 15 10   381   402   382
   806 2 2 15 10   382   402   403
   807 2 2 15 10   382   403   383
   808 2 2 15 10   383   403   404
   809 2 2 15 10   383   404   384
   810 2 2 15 10   384   404   405
   811 2 2 15 10   384   405   385
   812 2 2 15 10   385   405   406
   813 2 2 15 10   385   406   386
   814 2 2 15 10   386   406   407
   815 2 2 15 10   386   407   387
   816 2 2 15 10   387   407   408
   817 2 2 15 10   387   408   388
   818 2 2 15 10   388   408   409
   819 2 2 15 10   388   409   389
   820 2 2 15 10   389   409   410
   821 2 2 15 10   389   410   411
   822 2 2 15 10   389   411   390
   823 2 2 15 10   390   411   412
   824 2 2 15 10   390   412   391
   825 2 2 15 10   391   412   413
   826 2 2 15 10   391   413   392
   827 2 2 15 10   392   413   414
   828 2 2 15 10   392   414   393
   829 2 2 15 10   393   414   415
   830 2 2 15 10   393   415   394
   831 2 2 15 10   394   415   416
   832 2 2 15 10   394   416   395
   833 2 2 15 10   395   416   417
   834 2 2 15 10   395   417   396
   835 2 2 15 10   396   417   418
   836 2 2 15 10   396   418   397
   837 2 2 15 10   397   418   419
   838 2 2 15 10   397   419   398
   839 2 2 15 10   398   419   420
   840 2 2 15 10   398   420   399
   841 2 2 15 10   400   421   401
   842 2 2 15 10   401   421   422
   843 2 2 15 10   401   422   402
   844 2 2 15 10   402   422   423
   845 2 2 15 10   402   423   403
   846 2 2 15 10   403   423   424
   847 2 2 15 10   403   424   404
   848 2 2 15 10   404   424   425
   849 2 2 15 10   404   425   405
   850 2 2 15 10   405   425   426
   851 2 2 15 10   405   426   406
   852 2 2 15 10   406   426   427
   853 2 2 15 10   406   427   407
   854 2 2 15 10   407   427   428
   855 2 2 15 10   407   428   408
   856 2 2 15 10   408   428   429
   857 2 2 15 10   408   429   409
   858 2 2 15 10   409   429   430
   859 2 2 15 10   409   430   410
   860 2 2 15 10   410   430   431
   861 2 2 15 10   410   431   432
   862 2 2 15 10   410   432   411
   863 2 2 15 10   411   432   433
   864 2 2 15 10   411   433   412
   865 2 2 15 10   412   433   434
   866 2 2 15 10   412   434   413
   867 2 2 15 10   413   434   435
   868 2 2 15 10   413   435   414
   869 2 2 15 10   414   435   436
   870 2 2 15 10   414   436   415
   871 2 2 15 10   415   436   437
   872 2 2 15 10   415   437   416
   873 2 2 15 10   416   437   438
   874 2 2 15 10   416   438   417
   875 2 2 15 10   417   438   439
   876 2 2 15 10   417   439   418
   877 2 2 15 10   418   439   440
   878 2 2 15 10   418   440   419
   879 2 2 15 10   419   440   441
   880 2 2 15 10   419   441   420
$EndElements
