$MeshFormat
2.2 0 8
$EndMeshFormat
$PhysicalNames
5
1 11 "Swall (physical id 11)"
1 12 "NWall (physical id 12)"
1 13 "Master (physical id 13)"
1 14 "Slave (physical id 14)"
2 15 "Fluid (physical id 15)"
$EndPhysicalNames
$Nodes
    36
     1 0.0000000000000000 0.0000000000000000 0
     2 0.0000000000000000 0.0579200000000000 0
     3 0.0000000000000000 0.3174400000000001 0
     4 0.0000000000000000 0.6825599999999999 0
     5 0.0000000000000000 0.9420800000000006 0
     6 0.0000000000000000 1.0000000000000000 0
     7 0.2000000000000000 0.0000000000000000 0
     8 0.2000000000000000 0.0579200000000000 0
     9 0.2000000000000000 0.3174400000000001 0
    10 0.2000000000000000 0.6825599999999999 0
    11 0.2000000000000000 0.9420800000000006 0
    12 0.2000000000000000 1.0000000000000000 0
    13 0.4000000000000000 0.0000000000000000 0
    14 0.4000000000000000 0.0579200000000000 0
    15 0.4000000000000000 0.3174400000000001 0
    16 0.4000000000000000 0.6825599999999999 0
    17 0.4000000000000000 0.9420800000000006 0
    18 0.4000000000000000 1.0000000000000000 0
    19 0.6000000000000000 0.0000000000000000 0
    20 0.6000000000000000 0.0579200000000000 0
    21 0.6000000000000000 0.3174400000000001 0
    22 0.6000000000000000 0.6825599999999999 0
    23 0.6000000000000000 0.9420800000000006 0
    24 0.6000000000000000 1.0000000000000000 0
    25 0.8000000000000000 0.0000000000000000 0
    26 0.8000000000000000 0.0579200000000000 0
    27 0.8000000000000000 0.3174400000000001 0
    28 0.8000000000000000 0.6825599999999999 0
    29 0.8000000000000000 0.9420800000000006 0
    30 0.8000000000000000 1.0000000000000000 0
    31 1.0000000000000000 0.0000000000000000 0
    32 1.0000000000000000 0.0579200000000000 0
    33 1.0000000000000000 0.3174400000000001 0
    34 1.0000000000000000 0.6825599999999999 0
    35 1.0000000000000000 0.9420800000000006 0
    36 1.0000000000000000 1.0000000000000000 0
$EndNodes
$Elements
    70
     1 1 2 11 5     1     7
     2 1 2 11 5     7    13
     3 1 2 11 5    13    19
     4 1 2 11 5    19    25
     5 1 2 11 5    25    31
     6 1 2 12 6    36    30
     7 1 2 12 6    30    24
     8 1 2 12 6    24    18
     9 1 2 12 6    18    12
    10 1 2 12 6    12     6
    11 1 2 13 7    31    32
    12 1 2 13 7    32    33
    13 1 2 13 7    33    34
    14 1 2 13 7    34    35
    15 1 2 13 7    35    36
    16 1 2 14 8     6     5
    17 1 2 14 8     5     4
    18 1 2 14 8     4     3
    19 1 2 14 8     3     2
    20 1 2 14 8     2     1
    21 2 2 15 10     1     7     8
    22 2 2 15 10     1     8     2
    23 2 2 15 10     2     8     9
    24 2 2 15 10     2     9     3
    25 2 2 15 10     3     9    10
    26 2 2 15 10     3    10     4
    27 2 2 15 10     4    10     5
    28 2 2 15 10     5    10    11
    29 2 2 15 10     5    11     6
    30 2 2 15 10     6    11    12
    31 2 2 15 10     7    13    14
    32 2 2 15 10     7    14     8
    33 2 2 15 10     8    14    15
    34 2 2 15 10     8    15     9
    35 2 2 15 10     9    15    16
    36 2 2 15 10     9    16    10
    37 2 2 15 10    10    16    11
    38 2 2 15 10    11    16    17
    39 2 2 15 10    11    17    12
    40 2 2 15 10    12    17    18
    41 2 2 15 10    13    19    20
    42 2 2 15 10    13    20    14
    43 2 2 15 10    14    20    21
    44 2 2 15 10    14    21    15
    45 2 2 15 10    15    21    22
    46 2 2 15 10    15    22    16
    47 2 2 15 10    16    22    17
    48 2 2 15 10    17    22    23
    49 2 2 15 10    17    23    18
    50 2 2 15 10    18    23    24
    51 2 2 15 10    19    25    26
    52 2 2 15 10    19    26    20
    53 2 2 15 10    20    26    27
    54 2 2 15 10    20    27    21
    55 2 2 15 10    21    27    28
    56 2 2 15 10    21    28    22
    57 2 2 15 10    22    28    23
    58 2 2 15 10    23    28    29
    59 2 2 15 10    23    29    24
    60 2 2 15 10    24    29    30
    61 2 2 15 10    25    31    32
    62 2 2 15 10    25    32    26
    63 2 2 15 10    26    32    33
    64 2 2 15 10    26    33    27
    65 2 2 15 10    27    33    34
    66 2 2 15 10    27    34    28
    67 2 2 15 10    28    34    29
    68 2 2 15 10    29    34    35
    69 2 2 15 10    29    35    30
    70 2 2 15 10    30    35    36
$EndElements
