$MeshFormat
2.2 0 8
$EndMeshFormat
$PhysicalNames
5
1 11 "Swall (physical id 11)"
1 12 "NWall (physical id 12)"
1 13 "Master (physical id 13)"
1 14 "Slave (physical id 14)"
2 15 "Fluid (physical id 15)"
$EndPhysicalNames
$Nodes
   441
     1 0.0000000000000000 0.0000000000000000 0
     2 0.0000000000000000 0.0011581250000000 0
     3 0.0000000000000000 0.0085600000000000 0
     4 0.0000000000000000 0.0266118750000000 0
     5 0.0000000000000000 0.0579200000000000 0
     6 0.0000000000000000 0.1035156250000000 0
     7 0.0000000000000000 0.1630800000000000 0
     8 0.0000000000000000 0.2351693749999999 0
     9 0.0000000000000000 0.3174400000000001 0
    10 0.0000000000000000 0.4068731250000001 0
    11 0.0000000000000000 0.5000000000000000 0
    12 0.0000000000000000 0.5931268750000003 0
    13 0.0000000000000000 0.6825599999999999 0
    14 0.0000000000000000 0.7648306250000001 0
    15 0.0000000000000000 0.8369199999999997 0
    16 0.0000000000000000 0.8964843750000000 0
    17 0.0000000000000000 0.9420800000000006 0
    18 0.0000000000000000 0.9733881249999993 0
    19 0.0000000000000000 0.9914400000000003 0
    20 0.0000000000000000 0.9988418749999999 0
    21 0.0000000000000000 1.0000000000000000 0
    22 0.0500000000000000 0.0000000000000000 0
    23 0.0500000000000000 0.0011581250000000 0
    24 0.0500000000000000 0.0085600000000000 0
    25 0.0500000000000000 0.0266118750000000 0
    26 0.0500000000000000 0.0579200000000000 0
    27 0.0500000000000000 0.1035156250000000 0
    28 0.0500000000000000 0.1630800000000000 0
    29 0.0500000000000000 0.2351693749999999 0
    30 0.0500000000000000 0.3174400000000001 0
    31 0.0500000000000000 0.4068731250000001 0
    32 0.0500000000000000 0.5000000000000000 0
    33 0.0500000000000000 0.5931268750000003 0
    34 0.0500000000000000 0.6825599999999999 0
    35 0.0500000000000000 0.7648306250000001 0
    36 0.0500000000000000 0.8369199999999997 0
    37 0.0500000000000000 0.8964843750000000 0
    38 0.0500000000000000 0.9420800000000006 0
    39 0.0500000000000000 0.9733881249999993 0
    40 0.0500000000000000 0.9914400000000003 0
    41 0.0500000000000000 0.9988418749999999 0
    42 0.0500000000000000 1.0000000000000000 0
    43 0.1000000000000000 0.0000000000000000 0
    44 0.1000000000000000 0.0011581250000000 0
    45 0.1000000000000000 0.0085600000000000 0
    46 0.1000000000000000 0.0266118750000000 0
    47 0.1000000000000000 0.0579200000000000 0
    48 0.1000000000000000 0.1035156250000000 0
    49 0.1000000000000000 0.1630800000000000 0
    50 0.1000000000000000 0.2351693749999999 0
    51 0.1000000000000000 0.3174400000000001 0
    52 0.1000000000000000 0.4068731250000001 0
    53 0.1000000000000000 0.5000000000000000 0
    54 0.1000000000000000 0.5931268750000003 0
    55 0.1000000000000000 0.6825599999999999 0
    56 0.1000000000000000 0.7648306250000001 0
    57 0.1000000000000000 0.8369199999999997 0
    58 0.1000000000000000 0.8964843750000000 0
    59 0.1000000000000000 0.9420800000000006 0
    60 0.1000000000000000 0.9733881249999993 0
    61 0.1000000000000000 0.9914400000000003 0
    62 0.1000000000000000 0.9988418749999999 0
    63 0.1000000000000000 1.0000000000000000 0
    64 0.1500000000000000 0.0000000000000000 0
    65 0.1500000000000000 0.0011581250000000 0
    66 0.1500000000000000 0.0085600000000000 0
    67 0.1500000000000000 0.0266118750000000 0
    68 0.1500000000000000 0.0579200000000000 0
    69 0.1500000000000000 0.1035156250000000 0
    70 0.1500000000000000 0.1630800000000000 0
    71 0.1500000000000000 0.2351693749999999 0
    72 0.1500000000000000 0.3174400000000001 0
    73 0.1500000000000000 0.4068731250000001 0
    74 0.1500000000000000 0.5000000000000000 0
    75 0.1500000000000000 0.5931268750000003 0
    76 0.1500000000000000 0.6825599999999999 0
    77 0.1500000000000000 0.7648306250000001 0
    78 0.1500000000000000 0.8369199999999997 0
    79 0.1500000000000000 0.8964843750000000 0
    80 0.1500000000000000 0.9420800000000006 0
    81 0.1500000000000000 0.9733881249999993 0
    82 0.1500000000000000 0.9914400000000003 0
    83 0.1500000000000000 0.9988418749999999 0
    84 0.1500000000000000 1.0000000000000000 0
    85 0.2000000000000000 0.0000000000000000 0
    86 0.2000000000000000 0.0011581250000000 0
    87 0.2000000000000000 0.0085600000000000 0
    88 0.2000000000000000 0.0266118750000000 0
    89 0.2000000000000000 0.0579200000000000 0
    90 0.2000000000000000 0.1035156250000000 0
    91 0.2000000000000000 0.1630800000000000 0
    92 0.2000000000000000 0.2351693749999999 0
    93 0.2000000000000000 0.3174400000000001 0
    94 0.2000000000000000 0.4068731250000001 0
    95 0.2000000000000000 0.5000000000000000 0
    96 0.2000000000000000 0.5931268750000003 0
    97 0.2000000000000000 0.6825599999999999 0
    98 0.2000000000000000 0.7648306250000001 0
    99 0.2000000000000000 0.8369199999999997 0
   100 0.2000000000000000 0.8964843750000000 0
   101 0.2000000000000000 0.9420800000000006 0
   102 0.2000000000000000 0.9733881249999993 0
   103 0.2000000000000000 0.9914400000000003 0
   104 0.2000000000000000 0.9988418749999999 0
   105 0.2000000000000000 1.0000000000000000 0
   106 0.2500000000000000 0.0000000000000000 0
   107 0.2500000000000000 0.0011581250000000 0
   108 0.2500000000000000 0.0085600000000000 0
   109 0.2500000000000000 0.0266118750000000 0
   110 0.2500000000000000 0.0579200000000000 0
   111 0.2500000000000000 0.1035156250000000 0
   112 0.2500000000000000 0.1630800000000000 0
   113 0.2500000000000000 0.2351693749999999 0
   114 0.2500000000000000 0.3174400000000001 0
   115 0.2500000000000000 0.4068731250000001 0
   116 0.2500000000000000 0.5000000000000000 0
   117 0.2500000000000000 0.5931268750000003 0
   118 0.2500000000000000 0.6825599999999999 0
   119 0.2500000000000000 0.7648306250000001 0
   120 0.2500000000000000 0.8369199999999997 0
   121 0.2500000000000000 0.8964843750000000 0
   122 0.2500000000000000 0.9420800000000006 0
   123 0.2500000000000000 0.9733881249999993 0
   124 0.2500000000000000 0.9914400000000003 0
   125 0.2500000000000000 0.9988418749999999 0
   126 0.2500000000000000 1.0000000000000000 0
   127 0.3000000000000000 0.0000000000000000 0
   128 0.3000000000000000 0.0011581250000000 0
   129 0.3000000000000000 0.0085600000000000 0
   130 0.3000000000000000 0.0266118750000000 0
   131 0.3000000000000000 0.0579200000000000 0
   132 0.3000000000000000 0.1035156250000000 0
   133 0.3000000000000000 0.1630800000000000 0
   134 0.3000000000000000 0.2351693749999999 0
   135 0.3000000000000000 0.3174400000000001 0
   136 0.3000000000000000 0.4068731250000001 0
   137 0.3000000000000000 0.5000000000000000 0
   138 0.3000000000000000 0.5931268750000003 0
   139 0.3000000000000000 0.6825599999999999 0
   140 0.3000000000000000 0.7648306250000001 0
   141 0.3000000000000000 0.8369199999999997 0
   142 0.3000000000000000 0.8964843750000000 0
   143 0.3000000000000000 0.9420800000000006 0
   144 0.3000000000000000 0.9733881249999993 0
   145 0.3000000000000000 0.9914400000000003 0
   146 0.3000000000000000 0.9988418749999999 0
   147 0.3000000000000000 1.0000000000000000 0
   148 0.3500000000000000 0.0000000000000000 0
   149 0.3500000000000000 0.0011581250000000 0
   150 0.3500000000000000 0.0085600000000000 0
   151 0.3500000000000000 0.0266118750000000 0
   152 0.3500000000000000 0.0579200000000000 0
   153 0.3500000000000000 0.1035156250000000 0
   154 0.3500000000000000 0.1630800000000000 0
   155 0.3500000000000000 0.2351693749999999 0
   156 0.3500000000000000 0.3174400000000001 0
   157 0.3500000000000000 0.4068731250000001 0
   158 0.3500000000000000 0.5000000000000000 0
   159 0.3500000000000000 0.5931268750000003 0
   160 0.3500000000000000 0.6825599999999999 0
   161 0.3500000000000000 0.7648306250000001 0
   162 0.3500000000000000 0.8369199999999997 0
   163 0.3500000000000000 0.8964843750000000 0
   164 0.3500000000000000 0.9420800000000006 0
   165 0.3500000000000000 0.9733881249999993 0
   166 0.3500000000000000 0.9914400000000003 0
   167 0.3500000000000000 0.9988418749999999 0
   168 0.3500000000000000 1.0000000000000000 0
   169 0.4000000000000000 0.0000000000000000 0
   170 0.4000000000000000 0.0011581250000000 0
   171 0.4000000000000000 0.0085600000000000 0
   172 0.4000000000000000 0.0266118750000000 0
   173 0.4000000000000000 0.0579200000000000 0
   174 0.4000000000000000 0.1035156250000000 0
   175 0.4000000000000000 0.1630800000000000 0
   176 0.4000000000000000 0.2351693749999999 0
   177 0.4000000000000000 0.3174400000000001 0
   178 0.4000000000000000 0.4068731250000001 0
   179 0.4000000000000000 0.5000000000000000 0
   180 0.4000000000000000 0.5931268750000003 0
   181 0.4000000000000000 0.6825599999999999 0
   182 0.4000000000000000 0.7648306250000001 0
   183 0.4000000000000000 0.8369199999999997 0
   184 0.4000000000000000 0.8964843750000000 0
   185 0.4000000000000000 0.9420800000000006 0
   186 0.4000000000000000 0.9733881249999993 0
   187 0.4000000000000000 0.9914400000000003 0
   188 0.4000000000000000 0.9988418749999999 0
   189 0.4000000000000000 1.0000000000000000 0
   190 0.4500000000000000 0.0000000000000000 0
   191 0.4500000000000000 0.0011581250000000 0
   192 0.4500000000000000 0.0085600000000000 0
   193 0.4500000000000000 0.0266118750000000 0
   194 0.4500000000000000 0.0579200000000000 0
   195 0.4500000000000000 0.1035156250000000 0
   196 0.4500000000000000 0.1630800000000000 0
   197 0.4500000000000000 0.2351693749999999 0
   198 0.4500000000000000 0.3174400000000001 0
   199 0.4500000000000000 0.4068731250000001 0
   200 0.4500000000000000 0.5000000000000000 0
   201 0.4500000000000000 0.5931268750000003 0
   202 0.4500000000000000 0.6825599999999999 0
   203 0.4500000000000000 0.7648306250000001 0
   204 0.4500000000000000 0.8369199999999997 0
   205 0.4500000000000000 0.8964843750000000 0
   206 0.4500000000000000 0.9420800000000006 0
   207 0.4500000000000000 0.9733881249999993 0
   208 0.4500000000000000 0.9914400000000003 0
   209 0.4500000000000000 0.9988418749999999 0
   210 0.4500000000000000 1.0000000000000000 0
   211 0.5000000000000000 0.0000000000000000 0
   212 0.5000000000000000 0.0011581250000000 0
   213 0.5000000000000000 0.0085600000000000 0
   214 0.5000000000000000 0.0266118750000000 0
   215 0.5000000000000000 0.0579200000000000 0
   216 0.5000000000000000 0.1035156250000000 0
   217 0.5000000000000000 0.1630800000000000 0
   218 0.5000000000000000 0.2351693749999999 0
   219 0.5000000000000000 0.3174400000000001 0
   220 0.5000000000000000 0.4068731250000001 0
   221 0.5000000000000000 0.5000000000000000 0
   222 0.5000000000000000 0.5931268750000003 0
   223 0.5000000000000000 0.6825599999999999 0
   224 0.5000000000000000 0.7648306250000001 0
   225 0.5000000000000000 0.8369199999999997 0
   226 0.5000000000000000 0.8964843750000000 0
   227 0.5000000000000000 0.9420800000000006 0
   228 0.5000000000000000 0.9733881249999993 0
   229 0.5000000000000000 0.9914400000000003 0
   230 0.5000000000000000 0.9988418749999999 0
   231 0.5000000000000000 1.0000000000000000 0
   232 0.5500000000000000 0.0000000000000000 0
   233 0.5500000000000000 0.0011581250000000 0
   234 0.5500000000000000 0.0085600000000000 0
   235 0.5500000000000000 0.0266118750000000 0
   236 0.5500000000000000 0.0579200000000000 0
   237 0.5500000000000000 0.1035156250000000 0
   238 0.5500000000000000 0.1630800000000000 0
   239 0.5500000000000000 0.2351693749999999 0
   240 0.5500000000000000 0.3174400000000001 0
   241 0.5500000000000000 0.4068731250000001 0
   242 0.5500000000000000 0.5000000000000000 0
   243 0.5500000000000000 0.5931268750000003 0
   244 0.5500000000000000 0.6825599999999999 0
   245 0.5500000000000000 0.7648306250000001 0
   246 0.5500000000000000 0.8369199999999997 0
   247 0.5500000000000000 0.8964843750000000 0
   248 0.5500000000000000 0.9420800000000006 0
   249 0.5500000000000000 0.9733881249999993 0
   250 0.5500000000000000 0.9914400000000003 0
   251 0.5500000000000000 0.9988418749999999 0
   252 0.5500000000000000 1.0000000000000000 0
   253 0.6000000000000000 0.0000000000000000 0
   254 0.6000000000000000 0.0011581250000000 0
   255 0.6000000000000000 0.0085600000000000 0
   256 0.6000000000000000 0.0266118750000000 0
   257 0.6000000000000000 0.0579200000000000 0
   258 0.6000000000000000 0.1035156250000000 0
   259 0.6000000000000000 0.1630800000000000 0
   260 0.6000000000000000 0.2351693749999999 0
   261 0.6000000000000000 0.3174400000000001 0
   262 0.6000000000000000 0.4068731250000001 0
   263 0.6000000000000000 0.5000000000000000 0
   264 0.6000000000000000 0.5931268750000003 0
   265 0.6000000000000000 0.6825599999999999 0
   266 0.6000000000000000 0.7648306250000001 0
   267 0.6000000000000000 0.8369199999999997 0
   268 0.6000000000000000 0.8964843750000000 0
   269 0.6000000000000000 0.9420800000000006 0
   270 0.6000000000000000 0.9733881249999993 0
   271 0.6000000000000000 0.9914400000000003 0
   272 0.6000000000000000 0.9988418749999999 0
   273 0.6000000000000000 1.0000000000000000 0
   274 0.6500000000000000 0.0000000000000000 0
   275 0.6500000000000000 0.0011581250000000 0
   276 0.6500000000000000 0.0085600000000000 0
   277 0.6500000000000000 0.0266118750000000 0
   278 0.6500000000000000 0.0579200000000000 0
   279 0.6500000000000000 0.1035156250000000 0
   280 0.6500000000000000 0.1630800000000000 0
   281 0.6500000000000000 0.2351693749999999 0
   282 0.6500000000000000 0.3174400000000001 0
   283 0.6500000000000000 0.4068731250000001 0
   284 0.6500000000000000 0.5000000000000000 0
   285 0.6500000000000000 0.5931268750000003 0
   286 0.6500000000000000 0.6825599999999999 0
   287 0.6500000000000000 0.7648306250000001 0
   288 0.6500000000000000 0.8369199999999997 0
   289 0.6500000000000000 0.8964843750000000 0
   290 0.6500000000000000 0.9420800000000006 0
   291 0.6500000000000000 0.9733881249999993 0
   292 0.6500000000000000 0.9914400000000003 0
   293 0.6500000000000000 0.9988418749999999 0
   294 0.6500000000000000 1.0000000000000000 0
   295 0.7000000000000000 0.0000000000000000 0
   296 0.7000000000000000 0.0011581250000000 0
   297 0.7000000000000000 0.0085600000000000 0
   298 0.7000000000000000 0.0266118750000000 0
   299 0.7000000000000000 0.0579200000000000 0
   300 0.7000000000000000 0.1035156250000000 0
   301 0.7000000000000000 0.1630800000000000 0
   302 0.7000000000000000 0.2351693749999999 0
   303 0.7000000000000000 0.3174400000000001 0
   304 0.7000000000000000 0.4068731250000001 0
   305 0.7000000000000000 0.5000000000000000 0
   306 0.7000000000000000 0.5931268750000003 0
   307 0.7000000000000000 0.6825599999999999 0
   308 0.7000000000000000 0.7648306250000001 0
   309 0.7000000000000000 0.8369199999999997 0
   310 0.7000000000000000 0.8964843750000000 0
   311 0.7000000000000000 0.9420800000000006 0
   312 0.7000000000000000 0.9733881249999993 0
   313 0.7000000000000000 0.9914400000000003 0
   314 0.7000000000000000 0.9988418749999999 0
   315 0.7000000000000000 1.0000000000000000 0
   316 0.7500000000000000 0.0000000000000000 0
   317 0.7500000000000000 0.0011581250000000 0
   318 0.7500000000000000 0.0085600000000000 0
   319 0.7500000000000000 0.0266118750000000 0
   320 0.7500000000000000 0.0579200000000000 0
   321 0.7500000000000000 0.1035156250000000 0
   322 0.7500000000000000 0.1630800000000000 0
   323 0.7500000000000000 0.2351693749999999 0
   324 0.7500000000000000 0.3174400000000001 0
   325 0.7500000000000000 0.4068731250000001 0
   326 0.7500000000000000 0.5000000000000000 0
   327 0.7500000000000000 0.5931268750000003 0
   328 0.7500000000000000 0.6825599999999999 0
   329 0.7500000000000000 0.7648306250000001 0
   330 0.7500000000000000 0.8369199999999997 0
   331 0.7500000000000000 0.8964843750000000 0
   332 0.7500000000000000 0.9420800000000006 0
   333 0.7500000000000000 0.9733881249999993 0
   334 0.7500000000000000 0.9914400000000003 0
   335 0.7500000000000000 0.9988418749999999 0
   336 0.7500000000000000 1.0000000000000000 0
   337 0.8000000000000000 0.0000000000000000 0
   338 0.8000000000000000 0.0011581250000000 0
   339 0.8000000000000000 0.0085600000000000 0
   340 0.8000000000000000 0.0266118750000000 0
   341 0.8000000000000000 0.0579200000000000 0
   342 0.8000000000000000 0.1035156250000000 0
   343 0.8000000000000000 0.1630800000000000 0
   344 0.8000000000000000 0.2351693749999999 0
   345 0.8000000000000000 0.3174400000000001 0
   346 0.8000000000000000 0.4068731250000001 0
   347 0.8000000000000000 0.5000000000000000 0
   348 0.8000000000000000 0.5931268750000003 0
   349 0.8000000000000000 0.6825599999999999 0
   350 0.8000000000000000 0.7648306250000001 0
   351 0.8000000000000000 0.8369199999999997 0
   352 0.8000000000000000 0.8964843750000000 0
   353 0.8000000000000000 0.9420800000000006 0
   354 0.8000000000000000 0.9733881249999993 0
   355 0.8000000000000000 0.9914400000000003 0
   356 0.8000000000000000 0.9988418749999999 0
   357 0.8000000000000000 1.0000000000000000 0
   358 0.8500000000000000 0.0000000000000000 0
   359 0.8500000000000000 0.0011581250000000 0
   360 0.8500000000000000 0.0085600000000000 0
   361 0.8500000000000000 0.0266118750000000 0
   362 0.8500000000000000 0.0579200000000000 0
   363 0.8500000000000000 0.1035156250000000 0
   364 0.8500000000000000 0.1630800000000000 0
   365 0.8500000000000000 0.2351693749999999 0
   366 0.8500000000000000 0.3174400000000001 0
   367 0.8500000000000000 0.4068731250000001 0
   368 0.8500000000000000 0.5000000000000000 0
   369 0.8500000000000000 0.5931268750000003 0
   370 0.8500000000000000 0.6825599999999999 0
   371 0.8500000000000000 0.7648306250000001 0
   372 0.8500000000000000 0.8369199999999997 0
   373 0.8500000000000000 0.8964843750000000 0
   374 0.8500000000000000 0.9420800000000006 0
   375 0.8500000000000000 0.9733881249999993 0
   376 0.8500000000000000 0.9914400000000003 0
   377 0.8500000000000000 0.9988418749999999 0
   378 0.8500000000000000 1.0000000000000000 0
   379 0.9000000000000000 0.0000000000000000 0
   380 0.9000000000000000 0.0011581250000000 0
   381 0.9000000000000000 0.0085600000000000 0
   382 0.9000000000000000 0.0266118750000000 0
   383 0.9000000000000000 0.0579200000000000 0
   384 0.9000000000000000 0.1035156250000000 0
   385 0.9000000000000000 0.1630800000000000 0
   386 0.9000000000000000 0.2351693749999999 0
   387 0.9000000000000000 0.3174400000000001 0
   388 0.9000000000000000 0.4068731250000001 0
   389 0.9000000000000000 0.5000000000000000 0
   390 0.9000000000000000 0.5931268750000003 0
   391 0.9000000000000000 0.6825599999999999 0
   392 0.9000000000000000 0.7648306250000001 0
   393 0.9000000000000000 0.8369199999999997 0
   394 0.9000000000000000 0.8964843750000000 0
   395 0.9000000000000000 0.9420800000000006 0
   396 0.9000000000000000 0.9733881249999993 0
   397 0.9000000000000000 0.9914400000000003 0
   398 0.9000000000000000 0.9988418749999999 0
   399 0.9000000000000000 1.0000000000000000 0
   400 0.9500000000000000 0.0000000000000000 0
   401 0.9500000000000000 0.0011581250000000 0
   402 0.9500000000000000 0.0085600000000000 0
   403 0.9500000000000000 0.0266118750000000 0
   404 0.9500000000000000 0.0579200000000000 0
   405 0.9500000000000000 0.1035156250000000 0
   406 0.9500000000000000 0.1630800000000000 0
   407 0.9500000000000000 0.2351693749999999 0
   408 0.9500000000000000 0.3174400000000001 0
   409 0.9500000000000000 0.4068731250000001 0
   410 0.9500000000000000 0.5000000000000000 0
   411 0.9500000000000000 0.5931268750000003 0
   412 0.9500000000000000 0.6825599999999999 0
   413 0.9500000000000000 0.7648306250000001 0
   414 0.9500000000000000 0.8369199999999997 0
   415 0.9500000000000000 0.8964843750000000 0
   416 0.9500000000000000 0.9420800000000006 0
   417 0.9500000000000000 0.9733881249999993 0
   418 0.9500000000000000 0.9914400000000003 0
   419 0.9500000000000000 0.9988418749999999 0
   420 0.9500000000000000 1.0000000000000000 0
   421 1.0000000000000000 0.0000000000000000 0
   422 1.0000000000000000 0.0011581250000000 0
   423 1.0000000000000000 0.0085600000000000 0
   424 1.0000000000000000 0.0266118750000000 0
   425 1.0000000000000000 0.0579200000000000 0
   426 1.0000000000000000 0.1035156250000000 0
   427 1.0000000000000000 0.1630800000000000 0
   428 1.0000000000000000 0.2351693749999999 0
   429 1.0000000000000000 0.3174400000000001 0
   430 1.0000000000000000 0.4068731250000001 0
   431 1.0000000000000000 0.5000000000000000 0
   432 1.0000000000000000 0.5931268750000003 0
   433 1.0000000000000000 0.6825599999999999 0
   434 1.0000000000000000 0.7648306250000001 0
   435 1.0000000000000000 0.8369199999999997 0
   436 1.0000000000000000 0.8964843750000000 0
   437 1.0000000000000000 0.9420800000000006 0
   438 1.0000000000000000 0.9733881249999993 0
   439 1.0000000000000000 0.9914400000000003 0
   440 1.0000000000000000 0.9988418749999999 0
   441 1.0000000000000000 1.0000000000000000 0
$EndNodes
$Elements
   880
     1 1 2 11 5     1    22
     2 1 2 11 5    22    43
     3 1 2 11 5    43    64
     4 1 2 11 5    64    85
     5 1 2 11 5    85   106
     6 1 2 11 5   106   127
     7 1 2 11 5   127   148
     8 1 2 11 5   148   169
     9 1 2 11 5   169   190
    10 1 2 11 5   190   211
    11 1 2 11 5   211   232
    12 1 2 11 5   232   253
    13 1 2 11 5   253   274
    14 1 2 11 5   274   295
    15 1 2 11 5   295   316
    16 1 2 11 5   316   337
    17 1 2 11 5   337   358
    18 1 2 11 5   358   379
    19 1 2 11 5   379   400
    20 1 2 11 5   400   421
    21 1 2 12 6   441   420
    22 1 2 12 6   420   399
    23 1 2 12 6   399   378
    24 1 2 12 6   378   357
    25 1 2 12 6   357   336
    26 1 2 12 6   336   315
    27 1 2 12 6   315   294
    28 1 2 12 6   294   273
    29 1 2 12 6   273   252
    30 1 2 12 6   252   231
    31 1 2 12 6   231   210
    32 1 2 12 6   210   189
    33 1 2 12 6   189   168
    34 1 2 12 6   168   147
    35 1 2 12 6   147   126
    36 1 2 12 6   126   105
    37 1 2 12 6   105    84
    38 1 2 12 6    84    63
    39 1 2 12 6    63    42
    40 1 2 12 6    42    21
    41 1 2 13 7   421   422
    42 1 2 13 7   422   423
    43 1 2 13 7   423   424
    44 1 2 13 7   424   425
    45 1 2 13 7   425   426
    46 1 2 13 7   426   427
    47 1 2 13 7   427   428
    48 1 2 13 7   428   429
    49 1 2 13 7   429   430
    50 1 2 13 7   430   431
    51 1 2 13 7   431   432
    52 1 2 13 7   432   433
    53 1 2 13 7   433   434
    54 1 2 13 7   434   435
    55 1 2 13 7   435   436
    56 1 2 13 7   436   437
    57 1 2 13 7   437   438
    58 1 2 13 7   438   439
    59 1 2 13 7   439   440
    60 1 2 13 7   440   441
    61 1 2 14 8    21    20
    62 1 2 14 8    20    19
    63 1 2 14 8    19    18
    64 1 2 14 8    18    17
    65 1 2 14 8    17    16
    66 1 2 14 8    16    15
    67 1 2 14 8    15    14
    68 1 2 14 8    14    13
    69 1 2 14 8    13    12
    70 1 2 14 8    12    11
    71 1 2 14 8    11    10
    72 1 2 14 8    10     9
    73 1 2 14 8     9     8
    74 1 2 14 8     8     7
    75 1 2 14 8     7     6
    76 1 2 14 8     6     5
    77 1 2 14 8     5     4
    78 1 2 14 8     4     3
    79 1 2 14 8     3     2
    80 1 2 14 8     2     1
    81 2 2 15 10     1    22    23
    82 2 2 15 10     1    23     2
    83 2 2 15 10     2    23    24
    84 2 2 15 10     2    24     3
    85 2 2 15 10     3    24    25
    86 2 2 15 10     3    25     4
    87 2 2 15 10     4    25    26
    88 2 2 15 10     4    26     5
    89 2 2 15 10     5    26    27
    90 2 2 15 10     5    27     6
    91 2 2 15 10     6    27    28
    92 2 2 15 10     6    28     7
    93 2 2 15 10     7    28    29
    94 2 2 15 10     7    29     8
    95 2 2 15 10     8    29    30
    96 2 2 15 10     8    30     9
    97 2 2 15 10     9    30    31
    98 2 2 15 10     9    31    10
    99 2 2 15 10    10    31    32
   100 2 2 15 10    10    32    11
   101 2 2 15 10    11    32    12
   102 2 2 15 10    12    32    33
   103 2 2 15 10    12    33    13
   104 2 2 15 10    13    33    34
   105 2 2 15 10    13    34    14
   106 2 2 15 10    14    34    35
   107 2 2 15 10    14    35    15
   108 2 2 15 10    15    35    36
   109 2 2 15 10    15    36    16
   110 2 2 15 10    16    36    37
   111 2 2 15 10    16    37    17
   112 2 2 15 10    17    37    38
   113 2 2 15 10    17    38    18
   114 2 2 15 10    18    38    39
   115 2 2 15 10    18    39    19
   116 2 2 15 10    19    39    40
   117 2 2 15 10    19    40    20
   118 2 2 15 10    20    40    41
   119 2 2 15 10    20    41    21
   120 2 2 15 10    21    41    42
   121 2 2 15 10    22    43    44
   122 2 2 15 10    22    44    23
   123 2 2 15 10    23    44    45
   124 2 2 15 10    23    45    24
   125 2 2 15 10    24    45    46
   126 2 2 15 10    24    46    25
   127 2 2 15 10    25    46    47
   128 2 2 15 10    25    47    26
   129 2 2 15 10    26    47    48
   130 2 2 15 10    26    48    27
   131 2 2 15 10    27    48    49
   132 2 2 15 10    27    49    28
   133 2 2 15 10    28    49    50
   134 2 2 15 10    28    50    29
   135 2 2 15 10    29    50    51
   136 2 2 15 10    29    51    30
   137 2 2 15 10    30    51    52
   138 2 2 15 10    30    52    31
   139 2 2 15 10    31    52    53
   140 2 2 15 10    31    53    32
   141 2 2 15 10    32    53    33
   142 2 2 15 10    33    53    54
   143 2 2 15 10    33    54    34
   144 2 2 15 10    34    54    55
   145 2 2 15 10    34    55    35
   146 2 2 15 10    35    55    56
   147 2 2 15 10    35    56    36
   148 2 2 15 10    36    56    57
   149 2 2 15 10    36    57    37
   150 2 2 15 10    37    57    58
   151 2 2 15 10    37    58    38
   152 2 2 15 10    38    58    59
   153 2 2 15 10    38    59    39
   154 2 2 15 10    39    59    60
   155 2 2 15 10    39    60    40
   156 2 2 15 10    40    60    61
   157 2 2 15 10    40    61    41
   158 2 2 15 10    41    61    62
   159 2 2 15 10    41    62    42
   160 2 2 15 10    42    62    63
   161 2 2 15 10    43    64    65
   162 2 2 15 10    43    65    44
   163 2 2 15 10    44    65    66
   164 2 2 15 10    44    66    45
   165 2 2 15 10    45    66    67
   166 2 2 15 10    45    67    46
   167 2 2 15 10    46    67    68
   168 2 2 15 10    46    68    47
   169 2 2 15 10    47    68    69
   170 2 2 15 10    47    69    48
   171 2 2 15 10    48    69    70
   172 2 2 15 10    48    70    49
   173 2 2 15 10    49    70    71
   174 2 2 15 10    49    71    50
   175 2 2 15 10    50    71    72
   176 2 2 15 10    50    72    51
   177 2 2 15 10    51    72    73
   178 2 2 15 10    51    73    52
   179 2 2 15 10    52    73    74
   180 2 2 15 10    52    74    53
   181 2 2 15 10    53    74    54
   182 2 2 15 10    54    74    75
   183 2 2 15 10    54    75    55
   184 2 2 15 10    55    75    76
   185 2 2 15 10    55    76    56
   186 2 2 15 10    56    76    77
   187 2 2 15 10    56    77    57
   188 2 2 15 10    57    77    78
   189 2 2 15 10    57    78    58
   190 2 2 15 10    58    78    79
   191 2 2 15 10    58    79    59
   192 2 2 15 10    59    79    80
   193 2 2 15 10    59    80    60
   194 2 2 15 10    60    80    81
   195 2 2 15 10    60    81    61
   196 2 2 15 10    61    81    82
   197 2 2 15 10    61    82    62
   198 2 2 15 10    62    82    83
   199 2 2 15 10    62    83    63
   200 2 2 15 10    63    83    84
   201 2 2 15 10    64    85    86
   202 2 2 15 10    64    86    65
   203 2 2 15 10    65    86    87
   204 2 2 15 10    65    87    66
   205 2 2 15 10    66    87    88
   206 2 2 15 10    66    88    67
   207 2 2 15 10    67    88    89
   208 2 2 15 10    67    89    68
   209 2 2 15 10    68    89    90
   210 2 2 15 10    68    90    69
   211 2 2 15 10    69    90    91
   212 2 2 15 10    69    91    70
   213 2 2 15 10    70    91    92
   214 2 2 15 10    70    92    71
   215 2 2 15 10    71    92    93
   216 2 2 15 10    71    93    72
   217 2 2 15 10    72    93    94
   218 2 2 15 10    72    94    73
   219 2 2 15 10    73    94    95
   220 2 2 15 10    73    95    74
   221 2 2 15 10    74    95    75
   222 2 2 15 10    75    95    96
   223 2 2 15 10    75    96    76
   224 2 2 15 10    76    96    97
   225 2 2 15 10    76    97    77
   226 2 2 15 10    77    97    98
   227 2 2 15 10    77    98    78
   228 2 2 15 10    78    98    99
   229 2 2 15 10    78    99    79
   230 2 2 15 10    79    99   100
   231 2 2 15 10    79   100    80
   232 2 2 15 10    80   100   101
   233 2 2 15 10    80   101    81
   234 2 2 15 10    81   101   102
   235 2 2 15 10    81   102    82
   236 2 2 15 10    82   102   103
   237 2 2 15 10    82   103    83
   238 2 2 15 10    83   103   104
   239 2 2 15 10    83   104    84
   240 2 2 15 10    84   104   105
   241 2 2 15 10    85   106   107
   242 2 2 15 10    85   107    86
   243 2 2 15 10    86   107   108
   244 2 2 15 10    86   108    87
   245 2 2 15 10    87   108   109
   246 2 2 15 10    87   109    88
   247 2 2 15 10    88   109   110
   248 2 2 15 10    88   110    89
   249 2 2 15 10    89   110   111
   250 2 2 15 10    89   111    90
   251 2 2 15 10    90   111   112
   252 2 2 15 10    90   112    91
   253 2 2 15 10    91   112   113
   254 2 2 15 10    91   113    92
   255 2 2 15 10    92   113   114
   256 2 2 15 10    92   114    93
   257 2 2 15 10    93   114   115
   258 2 2 15 10    93   115    94
   259 2 2 15 10    94   115   116
   260 2 2 15 10    94   116    95
   261 2 2 15 10    95   116    96
   262 2 2 15 10    96   116   117
   263 2 2 15 10    96   117    97
   264 2 2 15 10    97   117   118
   265 2 2 15 10    97   118    98
   266 2 2 15 10    98   118   119
   267 2 2 15 10    98   119    99
   268 2 2 15 10    99   119   120
   269 2 2 15 10    99   120   100
   270 2 2 15 10   100   120   121
   271 2 2 15 10   100   121   101
   272 2 2 15 10   101   121   122
   273 2 2 15 10   101   122   102
   274 2 2 15 10   102   122   123
   275 2 2 15 10   102   123   103
   276 2 2 15 10   103   123   124
   277 2 2 15 10   103   124   104
   278 2 2 15 10   104   124   125
   279 2 2 15 10   104   125   105
   280 2 2 15 10   105   125   126
   281 2 2 15 10   106   127   128
   282 2 2 15 10   106   128   107
   283 2 2 15 10   107   128   129
   284 2 2 15 10   107   129   108
   285 2 2 15 10   108   129   130
   286 2 2 15 10   108   130   109
   287 2 2 15 10   109   130   131
   288 2 2 15 10   109   131   110
   289 2 2 15 10   110   131   132
   290 2 2 15 10   110   132   111
   291 2 2 15 10   111   132   133
   292 2 2 15 10   111   133   112
   293 2 2 15 10   112   133   134
   294 2 2 15 10   112   134   113
   295 2 2 15 10   113   134   135
   296 2 2 15 10   113   135   114
   297 2 2 15 10   114   135   136
   298 2 2 15 10   114   136   115
   299 2 2 15 10   115   136   137
   300 2 2 15 10   115   137   116
   301 2 2 15 10   116   137   117
   302 2 2 15 10   117   137   138
   303 2 2 15 10   117   138   118
   304 2 2 15 10   118   138   139
   305 2 2 15 10   118   139   119
   306 2 2 15 10   119   139   140
   307 2 2 15 10   119   140   120
   308 2 2 15 10   120   140   141
   309 2 2 15 10   120   141   121
   310 2 2 15 10   121   141   142
   311 2 2 15 10   121   142   122
   312 2 2 15 10   122   142   143
   313 2 2 15 10   122   143   123
   314 2 2 15 10   123   143   144
   315 2 2 15 10   123   144   124
   316 2 2 15 10   124   144   145
   317 2 2 15 10   124   145   125
   318 2 2 15 10   125   145   146
   319 2 2 15 10   125   146   126
   320 2 2 15 10   126   146   147
   321 2 2 15 10   127   148   149
   322 2 2 15 10   127   149   128
   323 2 2 15 10   128   149   150
   324 2 2 15 10   128   150   129
   325 2 2 15 10   129   150   151
   326 2 2 15 10   129   151   130
   327 2 2 15 10   130   151   152
   328 2 2 15 10   130   152   131
   329 2 2 15 10   131   152   153
   330 2 2 15 10   131   153   132
   331 2 2 15 10   132   153   154
   332 2 2 15 10   132   154   133
   333 2 2 15 10   133   154   155
   334 2 2 15 10   133   155   134
   335 2 2 15 10   134   155   156
   336 2 2 15 10   134   156   135
   337 2 2 15 10   135   156   157
   338 2 2 15 10   135   157   136
   339 2 2 15 10   136   157   158
   340 2 2 15 10   136   158   137
   341 2 2 15 10   137   158   138
   342 2 2 15 10   138   158   159
   343 2 2 15 10   138   159   139
   344 2 2 15 10   139   159   160
   345 2 2 15 10   139   160   140
   346 2 2 15 10   140   160   161
   347 2 2 15 10   140   161   141
   348 2 2 15 10   141   161   162
   349 2 2 15 10   141   162   142
   350 2 2 15 10   142   162   163
   351 2 2 15 10   142   163   143
   352 2 2 15 10   143   163   164
   353 2 2 15 10   143   164   144
   354 2 2 15 10   144   164   165
   355 2 2 15 10   144   165   145
   356 2 2 15 10   145   165   166
   357 2 2 15 10   145   166   146
   358 2 2 15 10   146   166   167
   359 2 2 15 10   146   167   147
   360 2 2 15 10   147   167   168
   361 2 2 15 10   148   169   170
   362 2 2 15 10   148   170   149
   363 2 2 15 10   149   170   171
   364 2 2 15 10   149   171   150
   365 2 2 15 10   150   171   172
   366 2 2 15 10   150   172   151
   367 2 2 15 10   151   172   173
   368 2 2 15 10   151   173   152
   369 2 2 15 10   152   173   174
   370 2 2 15 10   152   174   153
   371 2 2 15 10   153   174   175
   372 2 2 15 10   153   175   154
   373 2 2 15 10   154   175   176
   374 2 2 15 10   154   176   155
   375 2 2 15 10   155   176   177
   376 2 2 15 10   155   177   156
   377 2 2 15 10   156   177   178
   378 2 2 15 10   156   178   157
   379 2 2 15 10   157   178   179
   380 2 2 15 10   157   179   158
   381 2 2 15 10   158   179   159
   382 2 2 15 10   159   179   180
   383 2 2 15 10   159   180   160
   384 2 2 15 10   160   180   181
   385 2 2 15 10   160   181   161
   386 2 2 15 10   161   181   182
   387 2 2 15 10   161   182   162
   388 2 2 15 10   162   182   183
   389 2 2 15 10   162   183   163
   390 2 2 15 10   163   183   184
   391 2 2 15 10   163   184   164
   392 2 2 15 10   164   184   185
   393 2 2 15 10   164   185   165
   394 2 2 15 10   165   185   186
   395 2 2 15 10   165   186   166
   396 2 2 15 10   166   186   187
   397 2 2 15 10   166   187   167
   398 2 2 15 10   167   187   188
   399 2 2 15 10   167   188   168
   400 2 2 15 10   168   188   189
   401 2 2 15 10   169   190   191
   402 2 2 15 10   169   191   170
   403 2 2 15 10   170   191   192
   404 2 2 15 10   170   192   171
   405 2 2 15 10   171   192   193
   406 2 2 15 10   171   193   172
   407 2 2 15 10   172   193   194
   408 2 2 15 10   172   194   173
   409 2 2 15 10   173   194   195
   410 2 2 15 10   173   195   174
   411 2 2 15 10   174   195   196
   412 2 2 15 10   174   196   175
   413 2 2 15 10   175   196   197
   414 2 2 15 10   175   197   176
   415 2 2 15 10   176   197   198
   416 2 2 15 10   176   198   177
   417 2 2 15 10   177   198   199
   418 2 2 15 10   177   199   178
   419 2 2 15 10   178   199   200
   420 2 2 15 10   178   200   179
   421 2 2 15 10   179   200   180
   422 2 2 15 10   180   200   201
   423 2 2 15 10   180   201   181
   424 2 2 15 10   181   201   202
   425 2 2 15 10   181   202   182
   426 2 2 15 10   182   202   203
   427 2 2 15 10   182   203   183
   428 2 2 15 10   183   203   204
   429 2 2 15 10   183   204   184
   430 2 2 15 10   184   204   205
   431 2 2 15 10   184   205   185
   432 2 2 15 10   185   205   206
   433 2 2 15 10   185   206   186
   434 2 2 15 10   186   206   207
   435 2 2 15 10   186   207   187
   436 2 2 15 10   187   207   208
   437 2 2 15 10   187   208   188
   438 2 2 15 10   188   208   209
   439 2 2 15 10   188   209   189
   440 2 2 15 10   189   209   210
   441 2 2 15 10   190   211   212
   442 2 2 15 10   190   212   191
   443 2 2 15 10   191   212   213
   444 2 2 15 10   191   213   192
   445 2 2 15 10   192   213   214
   446 2 2 15 10   192   214   193
   447 2 2 15 10   193   214   215
   448 2 2 15 10   193   215   194
   449 2 2 15 10   194   215   216
   450 2 2 15 10   194   216   195
   451 2 2 15 10   195   216   217
   452 2 2 15 10   195   217   196
   453 2 2 15 10   196   217   218
   454 2 2 15 10   196   218   197
   455 2 2 15 10   197   218   219
   456 2 2 15 10   197   219   198
   457 2 2 15 10   198   219   220
   458 2 2 15 10   198   220   199
   459 2 2 15 10   199   220   221
   460 2 2 15 10   199   221   200
   461 2 2 15 10   200   221   201
   462 2 2 15 10   201   221   222
   463 2 2 15 10   201   222   202
   464 2 2 15 10   202   222   223
   465 2 2 15 10   202   223   203
   466 2 2 15 10   203   223   224
   467 2 2 15 10   203   224   204
   468 2 2 15 10   204   224   225
   469 2 2 15 10   204   225   205
   470 2 2 15 10   205   225   226
   471 2 2 15 10   205   226   206
   472 2 2 15 10   206   226   227
   473 2 2 15 10   206   227   207
   474 2 2 15 10   207   227   228
   475 2 2 15 10   207   228   208
   476 2 2 15 10   208   228   229
   477 2 2 15 10   208   229   209
   478 2 2 15 10   209   229   230
   479 2 2 15 10   209   230   210
   480 2 2 15 10   210   230   231
   481 2 2 15 10   211   232   233
   482 2 2 15 10   211   233   212
   483 2 2 15 10   212   233   234
   484 2 2 15 10   212   234   213
   485 2 2 15 10   213   234   235
   486 2 2 15 10   213   235   214
   487 2 2 15 10   214   235   236
   488 2 2 15 10   214   236   215
   489 2 2 15 10   215   236   237
   490 2 2 15 10   215   237   216
   491 2 2 15 10   216   237   238
   492 2 2 15 10   216   238   217
   493 2 2 15 10   217   238   239
   494 2 2 15 10   217   239   218
   495 2 2 15 10   218   239   240
   496 2 2 15 10   218   240   219
   497 2 2 15 10   219   240   241
   498 2 2 15 10   219   241   220
   499 2 2 15 10   220   241   242
   500 2 2 15 10   220   242   221
   501 2 2 15 10   221   242   222
   502 2 2 15 10   222   242   243
   503 2 2 15 10   222   243   223
   504 2 2 15 10   223   243   244
   505 2 2 15 10   223   244   224
   506 2 2 15 10   224   244   245
   507 2 2 15 10   224   245   225
   508 2 2 15 10   225   245   246
   509 2 2 15 10   225   246   226
   510 2 2 15 10   226   246   247
   511 2 2 15 10   226   247   227
   512 2 2 15 10   227   247   248
   513 2 2 15 10   227   248   228
   514 2 2 15 10   228   248   249
   515 2 2 15 10   228   249   229
   516 2 2 15 10   229   249   250
   517 2 2 15 10   229   250   230
   518 2 2 15 10   230   250   251
   519 2 2 15 10   230   251   231
   520 2 2 15 10   231   251   252
   521 2 2 15 10   232   253   254
   522 2 2 15 10   232   254   233
   523 2 2 15 10   233   254   255
   524 2 2 15 10   233   255   234
   525 2 2 15 10   234   255   256
   526 2 2 15 10   234   256   235
   527 2 2 15 10   235   256   257
   528 2 2 15 10   235   257   236
   529 2 2 15 10   236   257   258
   530 2 2 15 10   236   258   237
   531 2 2 15 10   237   258   259
   532 2 2 15 10   237   259   238
   533 2 2 15 10   238   259   260
   534 2 2 15 10   238   260   239
   535 2 2 15 10   239   260   261
   536 2 2 15 10   239   261   240
   537 2 2 15 10   240   261   262
   538 2 2 15 10   240   262   241
   539 2 2 15 10   241   262   263
   540 2 2 15 10   241   263   242
   541 2 2 15 10   242   263   243
   542 2 2 15 10   243   263   264
   543 2 2 15 10   243   264   244
   544 2 2 15 10   244   264   265
   545 2 2 15 10   244   265   245
   546 2 2 15 10   245   265   266
   547 2 2 15 10   245   266   246
   548 2 2 15 10   246   266   267
   549 2 2 15 10   246   267   247
   550 2 2 15 10   247   267   268
   551 2 2 15 10   247   268   248
   552 2 2 15 10   248   268   269
   553 2 2 15 10   248   269   249
   554 2 2 15 10   249   269   270
   555 2 2 15 10   249   270   250
   556 2 2 15 10   250   270   271
   557 2 2 15 10   250   271   251
   558 2 2 15 10   251   271   272
   559 2 2 15 10   251   272   252
   560 2 2 15 10   252   272   273
   561 2 2 15 10   253   274   275
   562 2 2 15 10   253   275   254
   563 2 2 15 10   254   275   276
   564 2 2 15 10   254   276   255
   565 2 2 15 10   255   276   277
   566 2 2 15 10   255   277   256
   567 2 2 15 10   256   277   278
   568 2 2 15 10   256   278   257
   569 2 2 15 10   257   278   279
   570 2 2 15 10   257   279   258
   571 2 2 15 10   258   279   280
   572 2 2 15 10   258   280   259
   573 2 2 15 10   259   280   281
   574 2 2 15 10   259   281   260
   575 2 2 15 10   260   281   282
   576 2 2 15 10   260   282   261
   577 2 2 15 10   261   282   283
   578 2 2 15 10   261   283   262
   579 2 2 15 10   262   283   284
   580 2 2 15 10   262   284   263
   581 2 2 15 10   263   284   264
   582 2 2 15 10   264   284   285
   583 2 2 15 10   264   285   265
   584 2 2 15 10   265   285   286
   585 2 2 15 10   265   286   266
   586 2 2 15 10   266   286   287
   587 2 2 15 10   266   287   267
   588 2 2 15 10   267   287   288
   589 2 2 15 10   267   288   268
   590 2 2 15 10   268   288   289
   591 2 2 15 10   268   289   269
   592 2 2 15 10   269   289   290
   593 2 2 15 10   269   290   270
   594 2 2 15 10   270   290   291
   595 2 2 15 10   270   291   271
   596 2 2 15 10   271   291   292
   597 2 2 15 10   271   292   272
   598 2 2 15 10   272   292   293
   599 2 2 15 10   272   293   273
   600 2 2 15 10   273   293   294
   601 2 2 15 10   274   295   296
   602 2 2 15 10   274   296   275
   603 2 2 15 10   275   296   297
   604 2 2 15 10   275   297   276
   605 2 2 15 10   276   297   298
   606 2 2 15 10   276   298   277
   607 2 2 15 10   277   298   299
   608 2 2 15 10   277   299   278
   609 2 2 15 10   278   299   300
   610 2 2 15 10   278   300   279
   611 2 2 15 10   279   300   301
   612 2 2 15 10   279   301   280
   613 2 2 15 10   280   301   302
   614 2 2 15 10   280   302   281
   615 2 2 15 10   281   302   303
   616 2 2 15 10   281   303   282
   617 2 2 15 10   282   303   304
   618 2 2 15 10   282   304   283
   619 2 2 15 10   283   304   305
   620 2 2 15 10   283   305   284
   621 2 2 15 10   284   305   285
   622 2 2 15 10   285   305   306
   623 2 2 15 10   285   306   286
   624 2 2 15 10   286   306   307
   625 2 2 15 10   286   307   287
   626 2 2 15 10   287   307   308
   627 2 2 15 10   287   308   288
   628 2 2 15 10   288   308   309
   629 2 2 15 10   288   309   289
   630 2 2 15 10   289   309   310
   631 2 2 15 10   289   310   290
   632 2 2 15 10   290   310   311
   633 2 2 15 10   290   311   291
   634 2 2 15 10   291   311   312
   635 2 2 15 10   291   312   292
   636 2 2 15 10   292   312   313
   637 2 2 15 10   292   313   293
   638 2 2 15 10   293   313   314
   639 2 2 15 10   293   314   294
   640 2 2 15 10   294   314   315
   641 2 2 15 10   295   316   317
   642 2 2 15 10   295   317   296
   643 2 2 15 10   296   317   318
   644 2 2 15 10   296   318   297
   645 2 2 15 10   297   318   319
   646 2 2 15 10   297   319   298
   647 2 2 15 10   298   319   320
   648 2 2 15 10   298   320   299
   649 2 2 15 10   299   320   321
   650 2 2 15 10   299   321   300
   651 2 2 15 10   300   321   322
   652 2 2 15 10   300   322   301
   653 2 2 15 10   301   322   323
   654 2 2 15 10   301   323   302
   655 2 2 15 10   302   323   324
   656 2 2 15 10   302   324   303
   657 2 2 15 10   303   324   325
   658 2 2 15 10   303   325   304
   659 2 2 15 10   304   325   326
   660 2 2 15 10   304   326   305
   661 2 2 15 10   305   326   306
   662 2 2 15 10   306   326   327
   663 2 2 15 10   306   327   307
   664 2 2 15 10   307   327   328
   665 2 2 15 10   307   328   308
   666 2 2 15 10   308   328   329
   667 2 2 15 10   308   329   309
   668 2 2 15 10   309   329   330
   669 2 2 15 10   309   330   310
   670 2 2 15 10   310   330   331
   671 2 2 15 10   310   331   311
   672 2 2 15 10   311   331   332
   673 2 2 15 10   311   332   312
   674 2 2 15 10   312   332   333
   675 2 2 15 10   312   333   313
   676 2 2 15 10   313   333   334
   677 2 2 15 10   313   334   314
   678 2 2 15 10   314   334   335
   679 2 2 15 10   314   335   315
   680 2 2 15 10   315   335   336
   681 2 2 15 10   316   337   338
   682 2 2 15 10   316   338   317
   683 2 2 15 10   317   338   339
   684 2 2 15 10   317   339   318
   685 2 2 15 10   318   339   340
   686 2 2 15 10   318   340   319
   687 2 2 15 10   319   340   341
   688 2 2 15 10   319   341   320
   689 2 2 15 10   320   341   342
   690 2 2 15 10   320   342   321
   691 2 2 15 10   321   342   343
   692 2 2 15 10   321   343   322
   693 2 2 15 10   322   343   344
   694 2 2 15 10   322   344   323
   695 2 2 15 10   323   344   345
   696 2 2 15 10   323   345   324
   697 2 2 15 10   324   345   346
   698 2 2 15 10   324   346   325
   699 2 2 15 10   325   346   347
   700 2 2 15 10   325   347   326
   701 2 2 15 10   326   347   327
   702 2 2 15 10   327   347   348
   703 2 2 15 10   327   348   328
   704 2 2 15 10   328   348   349
   705 2 2 15 10   328   349   329
   706 2 2 15 10   329   349   350
   707 2 2 15 10   329   350   330
   708 2 2 15 10   330   350   351
   709 2 2 15 10   330   351   331
   710 2 2 15 10   331   351   352
   711 2 2 15 10   331   352   332
   712 2 2 15 10   332   352   353
   713 2 2 15 10   332   353   333
   714 2 2 15 10   333   353   354
   715 2 2 15 10   333   354   334
   716 2 2 15 10   334   354   355
   717 2 2 15 10   334   355   335
   718 2 2 15 10   335   355   356
   719 2 2 15 10   335   356   336
   720 2 2 15 10   336   356   357
   721 2 2 15 10   337   358   359
   722 2 2 15 10   337   359   338
   723 2 2 15 10   338   359   360
   724 2 2 15 10   338   360   339
   725 2 2 15 10   339   360   361
   726 2 2 15 10   339   361   340
   727 2 2 15 10   340   361   362
   728 2 2 15 10   340   362   341
   729 2 2 15 10   341   362   363
   730 2 2 15 10   341   363   342
   731 2 2 15 10   342   363   364
   732 2 2 15 10   342   364   343
   733 2 2 15 10   343   364   365
   734 2 2 15 10   343   365   344
   735 2 2 15 10   344   365   366
   736 2 2 15 10   344   366   345
   737 2 2 15 10   345   366   367
   738 2 2 15 10   345   367   346
   739 2 2 15 10   346   367   368
   740 2 2 15 10   346   368   347
   741 2 2 15 10   347   368   348
   742 2 2 15 10   348   368   369
   743 2 2 15 10   348   369   349
   744 2 2 15 10   349   369   370
   745 2 2 15 10   349   370   350
   746 2 2 15 10   350   370   371
   747 2 2 15 10   350   371   351
   748 2 2 15 10   351   371   372
   749 2 2 15 10   351   372   352
   750 2 2 15 10   352   372   373
   751 2 2 15 10   352   373   353
   752 2 2 15 10   353   373   374
   753 2 2 15 10   353   374   354
   754 2 2 15 10   354   374   375
   755 2 2 15 10   354   375   355
   756 2 2 15 10   355   375   376
   757 2 2 15 10   355   376   356
   758 2 2 15 10   356   376   377
   759 2 2 15 10   356   377   357
   760 2 2 15 10   357   377   378
   761 2 2 15 10   358   379   380
   762 2 2 15 10   358   380   359
   763 2 2 15 10   359   380   381
   764 2 2 15 10   359   381   360
   765 2 2 15 10   360   381   382
   766 2 2 15 10   360   382   361
   767 2 2 15 10   361   382   383
   768 2 2 15 10   361   383   362
   769 2 2 15 10   362   383   384
   770 2 2 15 10   362   384   363
   771 2 2 15 10   363   384   385
   772 2 2 15 10   363   385   364
   773 2 2 15 10   364   385   386
   774 2 2 15 10   364   386   365
   775 2 2 15 10   365   386   387
   776 2 2 15 10   365   387   366
   777 2 2 15 10   366   387   388
   778 2 2 15 10   366   388   367
   779 2 2 15 10   367   388   389
   780 2 2 15 10   367   389   368
   781 2 2 15 10   368   389   369
   782 2 2 15 10   369   389   390
   783 2 2 15 10   369   390   370
   784 2 2 15 10   370   390   391
   785 2 2 15 10   370   391   371
   786 2 2 15 10   371   391   392
   787 2 2 15 10   371   392   372
   788 2 2 15 10   372   392   393
   789 2 2 15 10   372   393   373
   790 2 2 15 10   373   393   394
   791 2 2 15 10   373   394   374
   792 2 2 15 10   374   394   395
   793 2 2 15 10   374   395   375
   794 2 2 15 10   375   395   396
   795 2 2 15 10   375   396   376
   796 2 2 15 10   376   396   397
   797 2 2 15 10   376   397   377
   798 2 2 15 10   377   397   398
   799 2 2 15 10   377   398   378
   800 2 2 15 10   378   398   399
   801 2 2 15 10   379   400   401
   802 2 2 15 10   379   401   380
   803 2 2 15 10   380   401   402
   804 2 2 15 10   380   402   381
   805 2 2 15 10   381   402   403
   806 2 2 15 10   381   403   382
   807 2 2 15 10   382   403   404
   808 2 2 15 10   382   404   383
   809 2 2 15 10   383   404   405
   810 2 2 15 10   383   405   384
   811 2 2 15 10   384   405   406
   812 2 2 15 10   384   406   385
   813 2 2 15 10   385   406   407
   814 2 2 15 10   385   407   386
   815 2 2 15 10   386   407   408
   816 2 2 15 10   386   408   387
   817 2 2 15 10   387   408   409
   818 2 2 15 10   387   409   388
   819 2 2 15 10   388   409   410
   820 2 2 15 10   388   410   389
   821 2 2 15 10   389   410   390
   822 2 2 15 10   390   410   411
   823 2 2 15 10   390   411   391
   824 2 2 15 10   391   411   412
   825 2 2 15 10   391   412   392
   826 2 2 15 10   392   412   413
   827 2 2 15 10   392   413   393
   828 2 2 15 10   393   413   414
   829 2 2 15 10   393   414   394
   830 2 2 15 10   394   414   415
   831 2 2 15 10   394   415   395
   832 2 2 15 10   395   415   416
   833 2 2 15 10   395   416   396
   834 2 2 15 10   396   416   417
   835 2 2 15 10   396   417   397
   836 2 2 15 10   397   417   418
   837 2 2 15 10   397   418   398
   838 2 2 15 10   398   418   419
   839 2 2 15 10   398   419   399
   840 2 2 15 10   399   419   420
   841 2 2 15 10   400   421   422
   842 2 2 15 10   400   422   401
   843 2 2 15 10   401   422   423
   844 2 2 15 10   401   423   402
   845 2 2 15 10   402   423   424
   846 2 2 15 10   402   424   403
   847 2 2 15 10   403   424   425
   848 2 2 15 10   403   425   404
   849 2 2 15 10   404   425   426
   850 2 2 15 10   404   426   405
   851 2 2 15 10   405   426   427
   852 2 2 15 10   405   427   406
   853 2 2 15 10   406   427   428
   854 2 2 15 10   406   428   407
   855 2 2 15 10   407   428   429
   856 2 2 15 10   407   429   408
   857 2 2 15 10   408   429   430
   858 2 2 15 10   408   430   409
   859 2 2 15 10   409   430   431
   860 2 2 15 10   409   431   410
   861 2 2 15 10   410   431   411
   862 2 2 15 10   411   431   432
   863 2 2 15 10   411   432   412
   864 2 2 15 10   412   432   433
   865 2 2 15 10   412   433   413
   866 2 2 15 10   413   433   434
   867 2 2 15 10   413   434   414
   868 2 2 15 10   414   434   435
   869 2 2 15 10   414   435   415
   870 2 2 15 10   415   435   436
   871 2 2 15 10   415   436   416
   872 2 2 15 10   416   436   437
   873 2 2 15 10   416   437   417
   874 2 2 15 10   417   437   438
   875 2 2 15 10   417   438   418
   876 2 2 15 10   418   438   439
   877 2 2 15 10   418   439   419
   878 2 2 15 10   419   439   440
   879 2 2 15 10   419   440   420
   880 2 2 15 10   420   440   441
$EndElements
